<?xml version="1.0" encoding="utf-8" ?>
<svg baseProfile="full" height="200mm" version="1.1" viewBox="0,0,200,200" width="200mm" xmlns="http://www.w3.org/2000/svg" xmlns:ev="http://www.w3.org/2001/xml-events" xmlns:xlink="http://www.w3.org/1999/xlink"><defs /><rect fill="#1a1a1a" height="200" width="200" x="0" y="0" /><text alignment-baseline="middle" fill="#e1ed5e" style="dominant-baseline: central; font-size:9.0px; font-family:Arial;" text-anchor="middle" x="100.0" y="100.0">2024</text><line stroke="#e1ed5e" stroke-width="0.3" x1="100.0" x2="100.0" y1="15.0" y2="10.0" /><path d="M 100.0 14.0 a86.0,86.0 0 0,1 42.35913384403234,11.155469271406648" fill="none" id="id61" stroke="none" /><text fill="#e1ed5e" style="font-size:6.75px; font-family:Arial;" text-anchor="middle"><textPath startOffset="22.145653131862478" xlink:href="#id61">January</textPath></text><line stroke="#e1ed5e" stroke-width="0.3" x1="143.13028292997686" x2="145.6673583964461" y1="26.7553504044142" y2="22.446841604673864" /><path d="M 143.63769802327073 25.89364864446614 a86.0,86.0 0 0,1 29.32050498858742,28.57503671076993" fill="none" id="id62" stroke="none" /><text fill="#e1ed5e" style="font-size:6.75px; font-family:Arial;" text-anchor="middle"><textPath startOffset="20.669276256404974" xlink:href="#id62">February</textPath></text><line stroke="#e1ed5e" stroke-width="0.3" x1="172.87174338648825" x2="177.1583165268699" y1="56.24261187166439" y2="53.66864786411523" /><path d="M 173.72905801456457 55.72781907015455 a86.0,86.0 0 0,1 12.242430191666344,42.057860355516425" fill="none" id="id63" stroke="none" /><text fill="#e1ed5e" style="font-size:6.75px; font-family:Arial;" text-anchor="middle"><textPath startOffset="22.145653131862474" xlink:href="#id63">March</textPath></text><line stroke="#e1ed5e" stroke-width="0.3" x1="184.99686870605535" x2="189.99668451229388" y1="99.2704041080226" y2="99.22748670261217" /><path d="M 185.99683186730306 99.26182062694052 a86.0,86.0 0 0,1 -10.086455211305974,41.156179273409016" fill="none" id="id64" stroke="none" /><text fill="#e1ed5e" style="font-size:6.75px; font-family:Arial;" text-anchor="middle"><textPath startOffset="21.40746469413373" xlink:href="#id64">April</textPath></text><line stroke="#e1ed5e" stroke-width="0.3" x1="174.33088141563837" x2="178.70328620479359" y1="141.23008692659167" y2="143.65538615756765" /><path d="M 175.20536237346943 141.71514677278685 a86.0,86.0 0 0,1 -30.301960400862466,31.631185727798858" fill="none" id="id65" stroke="none" /><text fill="#e1ed5e" style="font-size:6.75px; font-family:Arial;" text-anchor="middle"><textPath startOffset="22.145653131862474" xlink:href="#id65">May</textPath></text><path d="M 113.59037401385872 116.0094264158162 l 34.695659005431885 40.871399067405115 a74.61212563915267,74.61212563915267 0 0,0 -0.9835500647454657,0.8205124451809082 l -33.98893460652452 -41.460973696497895" fill="#3cffa8" stroke="none" /><path d="M 112.7482090630111 116.68781488649013 l 32.713264016331635 42.82271270726064 a74.88823959094229,74.88823959094229 0 0,0 -1.0282761929420297,0.7716376251987431 l -31.97333483447884 -43.3779693597234" fill="#3dffad" stroke="none" /><path d="M 111.5731344415666 117.5232005979908 l 25.361141946457124 38.4000013104254 a67.01899196493791,67.01899196493791 0 0,0 -0.9654384752878925,0.6257855555848679 l -24.69821783891222 -38.82970070771417" fill="#31ff2f" stroke="none" /><line stroke="#e1ed5e" stroke-width="0.3" x1="143.1302829299769" x2="145.66735839644613" y1="173.24464959558577" y2="177.55315839532614" /><path d="M 143.63769802327073 174.10635135553383 a86.0,86.0 0 0,1 -40.68552437913181,11.842963189579606" fill="none" id="id66" stroke="none" /><text fill="#e1ed5e" style="font-size:6.75px; font-family:Arial;" text-anchor="middle"><textPath startOffset="21.407464694133747" xlink:href="#id66">June</textPath></text><path d="M 110.34350942703117 118.27599006163325 l 31.03052828109348 54.82797018489977 a84.0,84.0 0 0,0 -1.2610232473756222,0.6994683382674252 l -30.084760845561767 -55.352571438600336" fill="#4dd2ff" stroke="none" /><path d="M 109.71004243097381 118.62028667847754 l 20.02297281419946 38.396690499154204 a64.30387143900657,64.30387143900657 0 0,0 -0.9831534598806887,0.5020051618608257 l -19.360892132605187 -38.73475361268786" fill="#58ff2a" stroke="none" /><path d="M 109.06512990194946 118.94263497670748 l 24.215617276427448 50.601326595923496 a77.09715120525931,77.09715120525931 0 0,0 -1.198718571279627,0.5610608182078146 l -23.343409991276314 -51.00956364570184" fill="#41ffcd" stroke="none" /><path d="M 107.74402155503746 119.51999308798841 l 16.376144924640954 41.27858289972713 a65.40832724616509,65.40832724616509 0 0,0 -1.0472425659076632,0.4050959218257086 l -15.66513009623976 -41.55361870969087" fill="#48ff2c" stroke="none" /><path d="M 107.06938296918513 119.77432235084164 l 12.130007738945107 33.92979050557123 a57.03287070854638,57.03287070854638 0 0,0 -0.9247315847601234,0.3216696477063409 l -11.545770382139962 -34.133018585846166" fill="#c7ff1e" stroke="none" /><path d="M 106.38641147887787 120.00534299687104 l 13.813122270969611 43.26940877555524 a66.42074506939372,66.42074506939372 0 0,0 -1.0891717017281715,0.33742817735371067 l -13.068309936369815 -43.500153540715594" fill="#3aff2e" stroke="none" /><path d="M 105.69591212413111 120.21278271476187 l 14.978293387050396 53.152679162266416 a76.22279035792549,76.22279035792549 0 0,0 -1.2624621028162892,0.34408966004219 l -14.063649883299412 -53.40196931645275" fill="#3fffc1" stroke="none" /><path d="M 104.9986988182912 120.39639698878246 l 6.649109238939576 27.130634708964834 a48.93352812271731,48.93352812271731 0 0,0 -0.8175810296346132,0.19294689683604221 l -6.182396055565083 -27.2407777494471" fill="#ffaa0f" stroke="none" /><path d="M 104.29559338865022 120.5559693870025 l 5.977432728545408 28.60417946109554 a50.222059897735576,50.222059897735576 0 0,0 -0.84541307989163,0.1691062931525139 l -5.48552316312282 -28.702575150910913" fill="#ffc112" stroke="none" /><path d="M 102.875027216393 120.80226474461374 l 4.038478697679855 29.22042009049833 a50.4981738495252,50.4981738495252 0 0,0 -0.8597246240581209,0.11130856487092818 l -3.5362762517309583 -29.285440251569653" fill="#ffc612" stroke="none" /><path d="M 102.15924093988457 120.88869738790638 l 3.061421960785932 29.616480372480837 a50.77428780131483,50.77428780131483 0 0,0 -0.8677578124146088,0.08217756704005987 l -2.5525645849863077 -29.664669695026078" fill="#ffcb12" stroke="none" /><path d="M 101.08105385017728 120.97215588758144 l 1.9023073229197012 36.90425385915537 a57.953250547845144,57.953250547845144 0 0,0 -0.9939651398466516,0.04268513987378435 l -1.26851642247222 -36.93147156745498" fill="#b9ff1f" stroke="none" /><line stroke="#e1ed5e" stroke-width="0.3" x1="101.45913802915013" x2="101.54496967792366" y1="184.9874750549273" y2="189.98673829345242" /><path d="M 101.47630435890484 185.9873277026323 a86.0,86.0 0 0,1 -42.54439059252881,-10.42667462771756" fill="none" id="id67" stroke="none" /><text fill="#e1ed5e" style="font-size:6.75px; font-family:Arial;" text-anchor="middle"><textPath startOffset="22.145653131862474" xlink:href="#id67">July</textPath></text><path d="M 100.36049292484886 120.99690560180557 l 0.6375115931768279 37.131854245413635 a58.13732651570489,58.13732651570489 0 0,0 -0.9980045180256756,0.008566668485689051 l -4.548010804634812e-15 -37.13732651570489" fill="#b6ff1f" stroke="none" /><path d="M 99.63950707515114 120.99690560180557 l -0.5095352882268255 29.6778760697544 a50.68224981738496,50.68224981738496 0 0,0 -0.8697718117679052,-0.02240223657811781 l 1.0189204140654746 -29.664756115826236" fill="#ffc912" stroke="none" /><path d="M 98.91894614982273 120.97215588758144 l -1.5516952634027241 30.10247357129111 a51.14243973703433,51.14243973703433 0 0,0 -0.8763759897665624,-0.05272060331079454 l 2.068215605301733 -30.071400990155624" fill="#ffd213" stroke="none" /><path d="M 97.48249496171623 120.84855314841334 l -2.94046059621311 24.351231909651517 a45.5281227173119,45.5281227173119 0 0,0 -0.7751101713865034,-0.10035352993222908 l 3.3580485894904073 -24.29716678351889" fill="#ff6909" stroke="none" /><path d="M 96.76829788921471 120.74984581791261 l -4.34119808746103 27.87360588688189 a49.20964207450694,49.20964207450694 0 0,0 -0.833570321552792,-0.1371636792008005 l 4.819045912066885 -27.79497620918542" fill="#ffaf10" stroke="none" /><path d="M 95.70440661134978 120.55596938700252 l -5.807993690570885 27.793352326765266 a49.393718042366686,49.393718042366686 0 0,0 -0.828491613211381,-0.18056589102222464 l 6.284247720401402 -27.689554977609323" fill="#ffb210" stroke="none" /><path d="M 94.30408787586889 120.21278271476187 l -8.025868873227843 28.48097725111442 a50.59021183345507,50.59021183345507 0 0,0 -0.8338712046497156,-0.2427277547043845 l 8.513600090259166 -28.33900580210752" fill="#ffc812" stroke="none" /><path d="M 92.93061703081489 119.77432235084164 l -9.372483629708526 26.216504796769605 a48.841490138787435,48.841490138787435 0 0,0 -0.7870709577306688,-0.2890233577474338 l 9.821143739093312 -26.05175059001345" fill="#ffa80f" stroke="none" /><path d="M 92.25597844496254 119.51999308798841 l -10.572371282954723 26.649282017129533 a49.66983199415632,49.66983199415632 0 0,0 -0.7898580384699434,-0.32122838801771714 l 11.028283782615107 -26.463866372532525" fill="#ffb711" stroke="none" /><path d="M 90.93487009805054 118.94263497670748 l -12.375988156861613 25.861055348039656 a49.66983199415632,49.66983199415632 0 0,0 -0.7659555243896415,-0.3746672294997793 l 12.818103930513324 -25.644794368442653" fill="#ffb711" stroke="none" /><path d="M 89.97174638481275 118.45085714620012 l -13.383213553650188 24.62360555595881 a49.02556610664719,49.02556610664719 0 0,0 -0.7359806973360818,-0.4082360863956595 l 13.803938439142373 -24.390236554130002" fill="#ffab0f" stroke="none" /><line stroke="#e1ed5e" stroke-width="0.3" x1="58.13341422392154" x2="55.67067388415222" y1="173.97424548756322" y2="178.32567169271397" /><path d="M 57.64086615596768 174.84453072859336 a86.0,86.0 0 0,1 -31.369924170532247,-30.572349798747897" fill="none" id="id68" stroke="none" /><text fill="#e1ed5e" style="font-size:6.75px; font-family:Arial;" text-anchor="middle"><textPath startOffset="22.145653131862474" xlink:href="#id68">August</textPath></text><path d="M 87.83215693770417 117.11559508785305 l -16.451919290218825 23.141684811991222 a49.393718042366686,49.393718042366686 0 0,0 -0.6868525541240821,-0.49722828062726765 l 16.84675285471686 -22.855855759990888" fill="#ffb210" stroke="none" /><path d="M 86.13680546590413 115.77377054828092 l -18.379618757767705 20.91263224625995 a48.841490138787435,48.841490138787435 0 0,0 -0.6250198353501731,-0.558896590833682 l 18.73590361994125 -20.594040125542886" fill="#ffa80f" stroke="none" /><path d="M 83.20337586046588 112.60449989151573 l -20.20747988152862 15.164069628434182 a46.26442658875091,46.26442658875091 0 0,0 -0.4712317815450456,-0.6393164143499334 l 20.464813682657496 -14.81494690481537" fill="#ff770b" stroke="none" /><path d="M 82.78059297857968 112.02048342749411 l -25.395166381481104 17.727798422286785 a51.97078159240321,51.97078159240321 0 0,0 -0.5043894606790934,-0.7359192969924522 l 25.695745578975522 -17.28924439022428" fill="#ffe015" stroke="none" /><path d="M 81.99639281039703 110.81064883170644 l -25.604837982583632 15.374969521791424 a50.866325785244705,50.866325785244705 0 0,0 -0.44308515501072504,-0.7524554608754996 l 25.86499684772413 -14.933162892622365" fill="#ffcd13" stroke="none" /><line stroke="#e1ed5e" stroke-width="0.3" x1="26.387840678322732" x2="22.057713659400548" y1="142.50000000000003" y2="145.00000000000006" /><path d="M 25.521815274538298 143.00000000000003 a86.0,86.0 0 0,1 -11.493303480769221,-40.785679425670985" fill="none" id="id69" stroke="none" /><text fill="#e1ed5e" style="font-size:6.75px; font-family:Arial;" text-anchor="middle"><textPath startOffset="21.40746469413373" xlink:href="#id69">September</textPath></text><path d="M 79.56144815229197 104.8234425847677 l -31.307263129761683 7.38842885336587 a53.1672753834916,53.1672753834916 0 0,0 -0.20200814743690887,-0.8900851706116398 l 31.42948213875626 -6.849909348815204" fill="#fff517" stroke="none" /><path d="M 79.17382384314188 102.69636545807758 l -34.8218533404297 4.508386072709705 a56.11249086924762,56.11249086924762 0 0,0 -0.11547927572108026,-0.9563340612229404 l 34.894114702410434 -3.9099583345633646" fill="#d7ff1c" stroke="none" /><path d="M 79.0935383218832 101.97986365728391 l -32.207251774396155 3.0500602287887313 a53.351351351351354,53.351351351351354 0 0,0 -0.07851890449763149,-0.9125086904510209 l 32.25486430159153 -2.4967304909620482" fill="#fff917" stroke="none" /><path d="M 79.03789590574601 101.26102812881392 l -34.77351234335341 2.0918881523275443 a55.836376917458,55.836376917458 0 0,0 -0.04934449552817785,-0.957270030758729 l 34.804298428338164 -1.4946463281920848" fill="#dbff1b" stroke="none" /><line stroke="#e1ed5e" stroke-width="0.3" x1="15.003131293944662" x2="10.003315487706104" y1="100.72959589197737" y2="100.7725132973878" /><path d="M 14.003168132696942 100.73817937305945 a86.0,86.0 0 0,1 10.791469493833604,-42.45332614584628" fill="none" id="id70" stroke="none" /><text fill="#e1ed5e" style="font-size:6.75px; font-family:Arial;" text-anchor="middle"><textPath startOffset="22.145653131862435" xlink:href="#id70">October</textPath></text><path d="M 79.00077361379809 100.18025310272382 l -31.982021194471127 0.2745271871286834 a52.983199415631844,52.983199415631844 0 0,0 0.0,-0.9095605797049902 l 31.982021194471127 0.27452718712867163" fill="#fff216" stroke="none" /><path d="M 79.0935383218832 98.0201363427161 l -32.29887980220382 -3.0587374982874063 a53.443389335281225,53.443389335281225 0 0,0 0.09433421811094488,-0.9125979871193075 l 32.241613191611215 3.6127400076896263" fill="#fffa17" stroke="none" /><path d="M 79.2786578344484 96.59031103205396 l -39.09658642338919 -6.433328417972695 a60.62235208181154,60.62235208181154 0 0,0 0.17778279128611393,-1.025403896200013 l 38.98038881461085 7.1035253470933" fill="#8eff24" stroke="none" /><path d="M 79.407916724674 95.88100663000787 l -30.54968672913595 -6.110792939703448 a52.15485756026297,52.15485756026297 0 0,0 0.18314374229156527,-0.8764091056461718 l 30.440285276020017 6.6343184966350295" fill="#ffe415" stroke="none" /><path d="M 79.56144815229197 95.17655741523228 l -28.261635243032362 -6.669668964912552 a50.03798392987582,50.03798392987582 0 0,0 0.20447062710287456,-0.8343099343523157 l 28.14297708941319 7.153834723872985" fill="#ffbe11" stroke="none" /><path d="M 79.73907114497095 94.47779374421319 l -32.100770406543475 -8.74920772008882 a54.27173119065011,54.27173119065011 0 0,0 0.2527034149307003,-0.8967552704391084 l 31.945848499538194 9.298970914430942" fill="#f6ff19" stroke="none" /><path d="M 80.28708602549916 92.7611449362534 l -31.837292036246417 -11.691094628154666 a54.91599707815924,54.91599707815924 0 0,0 0.3325537998132354,-0.8821384637727986 l 31.631907552618745 12.235901372121608" fill="#ebff1a" stroke="none" /><path d="M 80.68587082218212 91.75594674310238 l -28.90770685562369 -12.338981098161579 a52.430971512052594,52.430971512052594 0 0,0 0.3604407532987374,-0.8247589813777115 l 28.691632220307977 12.833402149315157" fill="#ffe915" stroke="none" /><path d="M 80.9802524753101 91.09779779509293 l -27.633511925937334 -12.933878879152786 a51.51059167275383,51.51059167275383 0 0,0 0.38171983328753767,-0.7976476392004654 l 27.407412834689893 13.406339020418338" fill="#ffd814" stroke="none" /><path d="M 81.46374523516351 90.13048839642627 l -25.387492829852757 -13.517409975676216 a49.761869978086196,49.761869978086196 0 0,0 0.4079398727887528,-0.7505634187058685 l 25.151707607448653 13.951228227856705" fill="#ffb911" stroke="none" /><line stroke="#e1ed5e" stroke-width="0.3" x1="26.387840678322718" x2="22.05771365940052" y1="57.49999999999999" y2="54.99999999999999" /><path d="M 25.521815274538284 56.99999999999999 a86.0,86.0 0 0,1 29.574782752854787,-30.34633250058573" fill="none" id="id71" stroke="none" /><text fill="#e1ed5e" style="font-size:6.75px; font-family:Arial;" text-anchor="middle"><textPath startOffset="21.40746469413373" xlink:href="#id71">November</textPath></text><path d="M 83.8745106332314 86.54754324733833 l -21.944329211314763 -18.30673990519262 a49.57779401022644,49.57779401022644 0 0,0 0.5507985177100115,-0.6488392688992204 l 21.626836130097637 18.680745956541397" fill="#ffb510" stroke="none" /><path d="M 84.34580500576568 86.00192230759919 l -22.057664093409777 -19.724099246633436 a50.59021183345507,50.59021183345507 0 0,0 0.584442938366345,-0.6424051685981333 l 21.715823454201566 20.099841990789226" fill="#ffc812" stroke="none" /><path d="M 85.34317274990677 84.96080404539775 l -21.037739624859892 -21.58657417881184 a51.14243973703433,51.14243973703433 0 0,0 0.6339897239774203,-0.6073478141426111 l 20.66407741501717 21.94453412326002" fill="#ffd213" stroke="none" /><path d="M 87.83215693770416 82.88440491214696 l -19.651644273729808 -27.642498713837153 a54.91599707815924,54.91599707815924 0 0,0 0.7730208718757632,-0.5396286043956512 l 19.17422831068028 27.975772134037932" fill="#ebff1a" stroke="none" /><path d="M 88.4268655584334 82.4767994020092 l -18.48827247896724 -27.99360095530013 a54.54784514243974,54.54784514243974 0 0,0 0.7857860421431817,-0.5093370189195829 l 18.00500080456703 28.30685181592362" fill="#f1ff19" stroke="none" /><line stroke="#e1ed5e" stroke-width="0.3" x1="56.869717070023135" x2="54.33264160355391" y1="26.7553504044142" y2="22.446841604673864" /><path d="M 56.362301976729285 25.89364864446614 a86.0,86.0 0 0,1 42.16139366436587,-11.88097634709845" fill="none" id="id72" stroke="none" /><text fill="#e1ed5e" style="font-size:6.75px; font-family:Arial;" text-anchor="middle"><textPath startOffset="22.145653131862474" xlink:href="#id72">December</textPath></text><path d="M 89.34428304082924 81.90426304109057 l -18.79733853644805 -31.921990325614523 a58.04528853177502,58.04528853177502 0 0,0 0.8629607754684058,-0.49823063601676965 l 18.246585293119242 32.23996785890747" fill="#b7ff1f" stroke="none" /><path d="M 89.97174638481275 81.54914285379989 l -17.69045469735371 -32.548444125692676 a58.04528853177502,58.04528853177502 0 0,0 0.8795552381765157,-0.46831362318318076 l 17.129110643390632 32.847328216598434" fill="#b7ff1f" stroke="none" /><path d="M 90.61103034731259 81.2157712731953 l -8.620843574454392 -17.2474620230778 a40.281957633308984,40.281957633308984 0 0,0 0.6211856723432057,-0.30385304035406546 l 8.323497652849134 17.392908813529083" fill="#ff0000" stroke="none" /><path d="M 92.592206182469 80.34994680014964 l -13.100269417269937 -34.75002103494356 a58.13732651570489,58.13732651570489 0 0,0 0.9368715231781289,-0.3440322003337794 l 12.501808742437682 34.969784084286054" fill="#b6ff1f" stroke="none" /></svg>