<?xml version="1.0" encoding="utf-8" ?>
<svg baseProfile="full" height="200mm" version="1.1" viewBox="0,0,200,200" width="200mm" xmlns="http://www.w3.org/2000/svg" xmlns:ev="http://www.w3.org/2001/xml-events" xmlns:xlink="http://www.w3.org/1999/xlink"><defs /><rect fill="#1a1a1a" height="200" width="200" x="0" y="0" /><text alignment-baseline="middle" fill="#e1ed5e" style="dominant-baseline: central; font-size:9.0px; font-family:Arial;" text-anchor="middle" x="100.0" y="100.0">2024</text><line stroke="#e1ed5e" stroke-width="0.3" x1="100.0" x2="100.0" y1="15.0" y2="10.0" /><path d="M 100.0 14.0 a86.0,86.0 0 0,1 42.35913384403234,11.155469271406648" fill="none" id="id61" stroke="none" /><text fill="#e1ed5e" style="font-size:6.75px; font-family:Arial;" text-anchor="middle"><textPath startOffset="22.145653131862478" xlink:href="#id61">January</textPath></text><line stroke="#e1ed5e" stroke-width="0.3" x1="143.13028292997686" x2="145.6673583964461" y1="26.7553504044142" y2="22.446841604673864" /><path d="M 143.63769802327073 25.89364864446614 a86.0,86.0 0 0,1 29.32050498858742,28.57503671076993" fill="none" id="id62" stroke="none" /><text fill="#e1ed5e" style="font-size:6.75px; font-family:Arial;" text-anchor="middle"><textPath startOffset="20.669276256404974" xlink:href="#id62">February</textPath></text><line stroke="#e1ed5e" stroke-width="0.3" x1="172.87174338648825" x2="177.1583165268699" y1="56.24261187166439" y2="53.66864786411523" /><path d="M 173.72905801456457 55.72781907015455 a86.0,86.0 0 0,1 12.242430191666344,42.057860355516425" fill="none" id="id63" stroke="none" /><text fill="#e1ed5e" style="font-size:6.75px; font-family:Arial;" text-anchor="middle"><textPath startOffset="22.145653131862474" xlink:href="#id63">March</textPath></text><line stroke="#e1ed5e" stroke-width="0.3" x1="184.99686870605535" x2="189.99668451229388" y1="99.2704041080226" y2="99.22748670261217" /><path d="M 185.99683186730306 99.26182062694052 a86.0,86.0 0 0,1 -10.086455211305974,41.156179273409016" fill="none" id="id64" stroke="none" /><text fill="#e1ed5e" style="font-size:6.75px; font-family:Arial;" text-anchor="middle"><textPath startOffset="21.40746469413373" xlink:href="#id64">April</textPath></text><line stroke="#e1ed5e" stroke-width="0.3" x1="174.33088141563837" x2="178.70328620479359" y1="141.23008692659167" y2="143.65538615756765" /><path d="M 175.20536237346943 141.71514677278685 a86.0,86.0 0 0,1 -30.301960400862466,31.631185727798858" fill="none" id="id65" stroke="none" /><text fill="#e1ed5e" style="font-size:6.75px; font-family:Arial;" text-anchor="middle"><textPath startOffset="22.145653131862474" xlink:href="#id65">May</textPath></text><path d="M 113.59037401385872 116.0094264158162 l 36.837834613002265 43.394876546699074 a77.9222396737704,77.9222396737704 0 0,0 -1.027184565775614,0.8569138978550648 l -36.087475713064755 -44.02085262846601" fill="#44ffe7" stroke="none" /><path d="M 112.7482090630111 116.68781488649013 l 33.61939588897711 44.00886841577744 a76.38090175481963,76.38090175481963 0 0,0 -1.0487716535858402,0.7870178009599802 l -32.8589712464805 -44.57950524400144" fill="#42ffd4" stroke="none" /><path d="M 111.5731344415666 117.5232005979908 l 27.042158802878305 40.94527508499367 a70.06927658429348,70.06927658429348 0 0,0 -1.0093791859098218,0.6542673933333979 l -26.335293984711473 -41.40345632003096" fill="#38ff83" stroke="none" /><line stroke="#e1ed5e" stroke-width="0.3" x1="143.1302829299769" x2="145.66735839644613" y1="173.24464959558577" y2="177.55315839532614" /><path d="M 143.63769802327073 174.10635135553383 a86.0,86.0 0 0,1 -40.68552437913181,11.842963189579606" fill="none" id="id66" stroke="none" /><text fill="#e1ed5e" style="font-size:6.75px; font-family:Arial;" text-anchor="middle"><textPath startOffset="21.407464694133747" xlink:href="#id66">June</textPath></text><path d="M 110.34350942703117 118.27599006163325 l 29.71574039557625 52.50486597173276 a81.33064045712513,81.33064045712513 0 0,0 -1.220950337385513,0.6772405706044134 l -28.810045870034646 -53.007239457770325" fill="#49f0ff" stroke="none" /><path d="M 109.71004243097381 118.62028667847754 l 20.560507149038553 39.427483462766915 a65.4664019955789,65.4664019955789 0 0,0 -1.0009275987207618,0.5110807637983203 l -19.88065232860421 -39.77462217823807" fill="#31ff44" stroke="none" /><path d="M 109.06512990194946 118.94263497670748 l 26.428877048878928 55.22618828369292 a82.22432044874537,82.22432044874537 0 0,0 -1.2784366009886317,0.5983728813109193 l -25.47695173401879 -55.67173739657437" fill="#4ae5ff" stroke="none" /><path d="M 107.74402155503746 119.51999308798841 l 17.69221711381525 44.59594453843085 a68.97721142039393,68.97721142039393 0 0,0 -1.1043834159706922,0.4271992301553552 l -16.924061435351028 -44.893083656724244" fill="#37ff75" stroke="none" /><path d="M 107.06938296918513 119.77432235084164 l 13.21270964872479 36.95830044302666 a60.24909766986408,60.24909766986408 0 0,0 -0.9768795236230688,0.3398094078260374 l -12.576324353056698 -37.179668283421286" fill="#5dff2a" stroke="none" /><path d="M 106.38641147887787 120.00534299687104 l 15.455992669204301 48.415676898865364 a71.82288341845455,71.82288341845455 0 0,0 -1.177756318062577,0.3648719179355388 l -14.6225957182701 -48.67386540460755" fill="#3bff9b" stroke="none" /><path d="M 105.69591212413111 120.21278271476187 l 17.08773637239333 60.63834814428561 a84.0,84.0 0 0,0 -1.3912743962612195,0.3791980234234318 l -16.044280575197412 -60.92274666185318" fill="#4dd2ff" stroke="none" /><path d="M 104.9986988182912 120.39639698878246 l 7.510182735978854 30.64410841893645 a52.55097820225748,52.55097820225748 0 0,0 -0.8780213590804115,0.2072106500147658 l -6.983029223158564 -30.768515212597443" fill="#c1ff1e" stroke="none" /><path d="M 104.29559338865022 120.5559693870025 l 6.8014527317471245 32.54741347501479 a54.25047192410605,54.25047192410605 0 0,0 -0.9132253565131211,0.18267064767038252 l -6.241730889703044 -32.65937351934803" fill="#aaff21" stroke="none" /><path d="M 102.875027216393 120.80226474461374 l 4.470272036513134 32.34466159268479 a53.65211272836307,53.65211272836307 0 0,0 -0.9134200096574295,0.1182605075558292 l -3.914374204964929 -32.41663369644101" fill="#b2ff20" stroke="none" /><path d="M 102.15924093988457 120.88869738790638 l 3.356586134687193 32.47192600362214 a53.64494829011505,53.64494829011505 0 0,0 -0.9168188268338368,0.08682369611410515 l -2.798667744468341 -32.524761455241425" fill="#b2ff20" stroke="none" /><path d="M 101.08105385017728 120.97215588758144 l 2.0210787291967303 39.208387410893465 a60.260443229697756,60.260443229697756 0 0,0 -1.0335361574339657,0.04438448963259287 l -1.3477168111619353 -39.23730446895189" fill="#5dff2a" stroke="none" /><line stroke="#e1ed5e" stroke-width="0.3" x1="101.45913802915013" x2="101.54496967792366" y1="184.9874750549273" y2="189.98673829345242" /><path d="M 101.47630435890484 185.9873277026323 a86.0,86.0 0 0,1 -42.54439059252881,-10.42667462771756" fill="none" id="id67" stroke="none" /><text fill="#e1ed5e" style="font-size:6.75px; font-family:Arial;" text-anchor="middle"><textPath startOffset="22.145653131862474" xlink:href="#id67">July</textPath></text><path d="M 100.36049292484886 120.99690560180557 l 0.7161213592703185 41.71047902352011 a62.716626064109185,62.716626064109185 0 0,0 -1.0766142841191657,0.009241438783515663 l -5.108813258063836e-15 -41.716626064109185" fill="#3fff2d" stroke="none" /><path d="M 99.63950707515114 120.99690560180557 l -0.585323179269747 34.09214077316118 a55.097165068686124,55.097165068686124 0 0,0 -0.9455373677714746,-0.024353688541839898 l 1.1704738611119654 -34.07706936726929" fill="#9eff22" stroke="none" /><path d="M 98.91894614982273 120.97215588758144 l -1.762282053984247 34.18780104985933 a55.23319118432516,55.23319118432516 0 0,0 -0.9464750379727516,-0.056937587979586264 l 2.348901444089445 -34.152511484055054" fill="#9dff22" stroke="none" /><path d="M 97.48249496171623 120.84855314841334 l -3.355422907774707 27.787715124429194 a48.989569034310804,48.989569034310804 0 0,0 -0.8340408297989576,-0.10798328349660496 l 3.8319415594644584 -27.726020244732194" fill="#f3ff19" stroke="none" /><path d="M 96.76829788921471 120.74984581791261 l -4.931511582979674 31.663841990440478 a53.04557217602214,53.04557217602214 0 0,0 -0.8985477803063587,-0.14785569531187678 l 5.474336866339096 -31.574520296632933" fill="#baff1f" stroke="none" /><path d="M 95.70440661134978 120.55596938700252 l -6.641979533128558 31.784276489677236 a53.47085037523267,53.47085037523267 0 0,0 -0.8968782436900808,-0.19547043884079568 l 7.186620193437776 -31.665574592702722" fill="#b4ff20" stroke="none" /><path d="M 94.30408787586889 120.21278271476187 l -9.223696538718352 32.73164506421441 a55.00642831066027,55.00642831066027 0 0,0 -0.9066630673516181,-0.26391640505693464 l 9.784219618451576 -32.56848496485496" fill="#a0ff22" stroke="none" /><path d="M 92.93061703081489 119.77432235084164 l -10.346614536999736 28.94132231714715 a51.73520082645067,51.73520082645067 0 0,0 -0.8337025333820811,-0.30614711824125784 l 10.841906222035936 -28.759444349897173" fill="#ccff1d" stroke="none" /><path d="M 92.25597844496254 119.51999308798841 l -12.038803629787472 30.34564947565728 a53.64645822958507,53.64645822958507 0 0,0 -0.8530950189858711,-0.34694631747449545 l 12.557953109963783 -30.134515901603493" fill="#b2ff20" stroke="none" /><path d="M 90.93487009805054 118.94263497670748 l -14.19140291413611 29.654573968328098 a53.87536576092186,53.87536576092186 0 0,0 -0.8308088104253226,-0.40639022153943827 l 14.698371973823503 -29.406589996691437" fill="#afff20" stroke="none" /><path d="M 89.97174638481275 118.45085714620012 l -15.377702622597837 28.2932407988369 a53.20219267146294,53.20219267146294 0 0,0 -0.7986809734532141,-0.4430148726201259 l 15.861127784207154 -28.025093010783625" fill="#b8ff1f" stroke="none" /><line stroke="#e1ed5e" stroke-width="0.3" x1="58.13341422392154" x2="55.67067388415222" y1="173.97424548756322" y2="178.32567169271397" /><path d="M 57.64086615596768 174.84453072859336 a86.0,86.0 0 0,1 -31.369924170532247,-30.572349798747897" fill="none" id="id68" stroke="none" /><text fill="#e1ed5e" style="font-size:6.75px; font-family:Arial;" text-anchor="middle"><textPath startOffset="22.145653131862474" xlink:href="#id68">August</textPath></text><path d="M 87.83215693770417 117.11559508785305 l -18.852971395443202 26.519065289982333 a53.537599086161,53.537599086161 0 0,0 -0.7444759805783364,-0.538943197588215 l 19.30542838639549 -26.191521321021053" fill="#b3ff20" stroke="none" /><path d="M 86.13680546590413 115.77377054828092 l -21.118726798357834 24.029234385323697 a52.990697503000774,52.990697503000774 0 0,0 -0.6781168415276085,-0.6063762611699323 l 21.52810866670881 -23.663162594270382" fill="#bbff1f" stroke="none" /><path d="M 83.20337586046588 112.60449989151573 l -22.647593066426065 16.995176053083814 a49.315181100917286,49.315181100917286 0 0,0 -0.5023056019687553,-0.6814740196547039 l 22.93600068797865 -16.60389572416023" fill="#eeff19" stroke="none" /><path d="M 82.78059297857968 112.02048342749411 l -28.168134479669334 19.66354551437754 a55.352566458137204,55.352566458137204 0 0,0 -0.5372105303704836,-0.7838062185417417 l 28.501534746855143 -19.177104560765745" fill="#9bff22" stroke="none" /><path d="M 81.99639281039703 110.81064883170644 l -28.50941261209948 17.11908313160809 a54.25431723481698,54.25431723481698 0 0,0 -0.4725971886289307,-0.8025733459060254 l 28.799083510858182 -16.627158617408504" fill="#aaff21" stroke="none" /><line stroke="#e1ed5e" stroke-width="0.3" x1="26.387840678322732" x2="22.057713659400548" y1="142.50000000000003" y2="145.00000000000006" /><path d="M 25.521815274538298 143.00000000000003 a86.0,86.0 0 0,1 -11.493303480769221,-40.785679425670985" fill="none" id="id69" stroke="none" /><text fill="#e1ed5e" style="font-size:6.75px; font-family:Arial;" text-anchor="middle"><textPath startOffset="21.40746469413373" xlink:href="#id69">September</textPath></text><path d="M 79.56144815229197 104.8234425847677 l -33.413098653143365 7.885400302991095 a55.33095832544007,55.33095832544007 0 0,0 -0.21022902352264422,-0.9263078674988247 l 33.54353853822368 -7.310658101553244" fill="#9bff22" stroke="none" /><path d="M 79.17382384314188 102.69636545807758 l -36.71293380290118 4.75322429932647 a58.01935506807097,58.01935506807097 0 0,0 -0.11940359440961776,-0.9888330495090011 l 36.78911948357046 -4.122297572894069" fill="#79ff26" stroke="none" /><path d="M 79.0935383218832 101.97986365728391 l -33.710522418292044 3.192421521710267 a54.86134783032786,54.86134783032786 0 0,0 -0.08074121501688533,-0.9383353072979361 l 33.76035725600667 -2.6132651670366687" fill="#a2ff22" stroke="none" /><path d="M 79.03789590574601 101.26102812881392 l -38.25162004431412 2.301122474714009 a59.32077244339169,59.32077244339169 0 0,0 -0.052423773750366366,-1.017007205633398 l 38.285485407521065 -1.6441434757038802" fill="#68ff28" stroke="none" /><line stroke="#e1ed5e" stroke-width="0.3" x1="15.003131293944662" x2="10.003315487706104" y1="100.72959589197737" y2="100.7725132973878" /><path d="M 14.003168132696942 100.73817937305945 a86.0,86.0 0 0,1 10.791469493833604,-42.45332614584628" fill="none" id="id70" stroke="none" /><text fill="#e1ed5e" style="font-size:6.75px; font-family:Arial;" text-anchor="middle"><textPath startOffset="22.145653131862435" xlink:href="#id70">October</textPath></text><path d="M 79.00077361379809 100.18025310272382 l -36.63918971360547 0.3145033776817442 a57.64053950536408,57.64053950536408 0 0,0 0.0,-0.9895129608111101 l 36.63918971360547 0.3145033776817307" fill="#7dff26" stroke="none" /><path d="M 79.0935383218832 98.0201363427161 l -36.367455985060765 -3.4440358928866655 a57.530168875284765,57.530168875284765 0 0,0 0.10154789144441241,-0.9823837329036879 l 36.30297570113469 4.067824148073266" fill="#7fff26" stroke="none" /><path d="M 79.2786578344484 96.59031103205396 l -44.552079787450204 -7.331027774970233 a66.15121019003493,66.15121019003493 0 0,0 0.19399687393632714,-1.118922416201652 l 44.419668096021645 8.094743224092477" fill="#32ff4d" stroke="none" /><path d="M 79.407916724674 95.88100663000787 l -34.60424869263229 -6.921818887033165 a56.28973794584528,56.28973794584528 0 0,0 0.19766353015348265,-0.9458915467878214 l 34.48032745165444 7.5148268851063955" fill="#8fff24" stroke="none" /><path d="M 79.56144815229197 95.17655741523228 l -32.11180883955215 -7.578299450212046 a53.99392200853096,53.99392200853096 0 0,0 0.22063580955419648,-0.9002693951357467 l 31.976985503481654 8.12842466995591" fill="#adff20" stroke="none" /><path d="M 79.73907114497095 94.47779374421319 l -36.63486028554465 -9.9849940788127 a58.971214029779205,58.971214029779205 0 0,0 0.27458543962020826,-0.9744068564834688 l 36.458056353849855 10.612408859199181" fill="#6dff28" stroke="none" /><path d="M 80.28708602549916 92.7611449362534 l -34.992286295506624 -12.849652221379058 a58.27698569354948,58.27698569354948 0 0,0 0.3529068771430755,-0.9361274194812503 l 34.76654873454911 13.448447921054454" fill="#75ff27" stroke="none" /><path d="M 80.68587082218212 91.75594674310238 l -33.16103363724559 -14.154473382791803 a57.05555808241907,57.05555808241907 0 0,0 0.3922328299863674,-0.8975054745109108 l 32.913166925242244 14.72164092707858" fill="#85ff25" stroke="none" /><path d="M 80.9802524753101 91.09779779509293 l -32.036615549976474 -14.99475370093855 a56.37212708403051,56.37212708403051 0 0,0 0.4177462974854936,-0.8729290933202292 l 31.774489994531073 15.542495296323866" fill="#8eff24" stroke="none" /><path d="M 81.46374523516351 90.13048839642627 l -29.29958142062172 -15.600376800994516 a54.19393359872628,54.19393359872628 0 0,0 0.44427322341226794,-0.8174126915425697 l 29.0274628475941 16.101044326011706" fill="#aaff21" stroke="none" /><line stroke="#e1ed5e" stroke-width="0.3" x1="26.387840678322718" x2="22.05771365940052" y1="57.49999999999999" y2="54.99999999999999" /><path d="M 25.521815274538284 56.99999999999999 a86.0,86.0 0 0,1 29.574782752854787,-30.34633250058573" fill="none" id="id71" stroke="none" /><text fill="#e1ed5e" style="font-size:6.75px; font-family:Arial;" text-anchor="middle"><textPath startOffset="21.40746469413373" xlink:href="#id71">November</textPath></text><path d="M 83.8745106332314 86.54754324733833 l -24.95604441649825 -20.819219844719772 a53.499908736195046,53.499908736195046 0 0,0 0.5943723600013106,-0.7001691455535026 l 24.594977492989827 21.24455577272283" fill="#b4ff20" stroke="none" /><path d="M 84.34580500576568 86.00192230759919 l -24.826778716424336 -22.200258617741166 a54.304960953721164,54.304960953721164 0 0,0 0.6273575420507359,-0.689575835579334 l 24.442023473531734 22.62317202887816" fill="#a9ff21" stroke="none" /><path d="M 85.34317274990677 84.96080404539775 l -23.904187189354786 -24.52780190023135 a55.2494267286433,55.2494267286433 0 0,0 0.6849021865540446,-0.6561208016045208 l 23.47961251693544 24.934534832141438" fill="#9cff22" stroke="none" /><path d="M 87.83215693770416 82.88440491214696 l -22.013338809262063 -30.964517841172807 a58.991952446112485,58.991952446112485 0 0,0 0.8303957487768879,-0.5796807244301309 l 21.47854796931141 31.337843381408064" fill="#6cff28" stroke="none" /><path d="M 88.4268655584334 82.4767994020092 l -20.86821464645971 -31.597136732332224 a58.86636280674992,58.86636280674992 0 0,0 0.8479962155148797,-0.5496609016971259 l 20.322732798687802 31.950711475733254" fill="#6eff28" stroke="none" /><line stroke="#e1ed5e" stroke-width="0.3" x1="56.869717070023135" x2="54.33264160355391" y1="26.7553504044142" y2="22.446841604673864" /><path d="M 56.362301976729285 25.89364864446614 a86.0,86.0 0 0,1 42.16139366436587,-11.88097634709845" fill="none" id="id72" stroke="none" /><text fill="#e1ed5e" style="font-size:6.75px; font-family:Arial;" text-anchor="middle"><textPath startOffset="22.145653131862474" xlink:href="#id72">December</textPath></text><path d="M 89.34428304082924 81.90426304109057 l -21.186666705818695 -35.979591914237105 a62.75411213783,62.75411213783 0 0,0 0.9329669753411257,-0.538648734358227 l 20.56590726261717 36.337987545871506" fill="#3fff2d" stroke="none" /><path d="M 89.97174638481275 81.54914285379989 l -10.301426947816898 -18.953465310084965 a42.5720477568033,42.5720477568033 0 0,0 0.64509055862302,-0.3434743875965411 l 9.974547573407316 19.127510165404082" fill="#ffab0f" stroke="none" /><path d="M 90.61103034731259 81.2157712731953 l -5.020051311857077 -10.043465422771764 a32.22818386347899,32.22818386347899 0 0,0 0.4969889061469409,-0.24310217842815157 l 4.846902156448083 10.128161351297129" fill="#ff0000" stroke="none" /><path d="M 92.592206182469 80.34994680014964 l -7.6284906582369185 -20.235477790184827 a42.625642906509654,42.625642906509654 0 0,0 0.6869038084419131,-0.2522405930690167 l 7.279997698140878 20.363449232262564" fill="#ffac0f" stroke="none" /><path d="M 95.35216902796891 79.52079915486377 l -5.769771117536771 -25.422676138083794 a47.06919102639468,47.06919102639468 0 0,0 0.7895018142300162,-0.17206824580580896 l 5.332506886687637 25.51797584202332" fill="#ffef16" stroke="none" /></svg>