<?xml version="1.0" encoding="utf-8" ?>
<svg baseProfile="full" height="200mm" version="1.1" viewBox="0,0,200,200" width="200mm" xmlns="http://www.w3.org/2000/svg" xmlns:ev="http://www.w3.org/2001/xml-events" xmlns:xlink="http://www.w3.org/1999/xlink"><defs /><rect fill="#1a1a1a" height="200" width="200" x="0" y="0" /><text alignment-baseline="middle" fill="#e1ed5e" style="dominant-baseline: central; font-size:9.0px; font-family:Arial;" text-anchor="middle" x="100.0" y="100.0">2021</text><line stroke="#e1ed5e" stroke-width="0.3" x1="100.0" x2="100.0" y1="15.0" y2="10.0" /><path d="M 100.0 14.0 a86.0,86.0 0 0,1 42.46469731375804,11.215312516191453" fill="none" id="id25" stroke="none" /><text fill="#e1ed5e" style="font-size:6.75px; font-family:Arial;" text-anchor="middle"><textPath startOffset="22.20632615414155" xlink:href="#id25">January</textPath></text><line stroke="#e1ed5e" stroke-width="0.3" x1="143.23703022742887" x2="145.7803849466894" y1="26.81831364943548" y2="22.513508569990506" /><path d="M 143.74570117128098 25.957352633546492 a86.0,86.0 0 0,1 28.547481713284135,27.462654790039103" fill="none" id="id26" stroke="none" /><text fill="#e1ed5e" style="font-size:6.75px; font-family:Arial;" text-anchor="middle"><textPath startOffset="19.985693538727396" xlink:href="#id26">February</textPath></text><line stroke="#e1ed5e" stroke-width="0.3" x1="172.23445277983987" x2="176.4835382374775" y1="55.19839476539836" y2="52.563006222186495" /><path d="M 173.08426987136738 54.67131705675599 a86.0,86.0 0 0,1 12.851231095245387,41.99856678651699" fill="none" id="id27" stroke="none" /><text fill="#e1ed5e" style="font-size:6.75px; font-family:Arial;" text-anchor="middle"><textPath startOffset="22.20632615414155" xlink:href="#id27">March</textPath></text><path d="M 119.97218684219823 93.5106431181261 l 31.529367604589684 -10.24451254449892 a54.15193899034784,54.15193899034784 0 0,0 0.280415543262809,0.8889939026004343 l -31.701038631620698 9.700268475472065" fill="red" stroke="none" /><path d="M 120.18372546131832 94.20196356495316 l 48.4845140711976 -13.927804342121878 a71.44533515115731,71.44533515115731 0 0,0 0.329373982092956,1.1849334598377486 l -48.71707482385692 13.091159578865177" fill="red" stroke="none" /><path d="M 120.37134235888165 94.90015583598534 l 60.44222551521782 -15.13135097449528 a83.30746670781767,83.30746670781767 0 0,0 0.3362733652469864,1.3940701959128325 l -60.69373168072563 14.088695546923041" fill="red" stroke="none" /><path d="M 120.67395015179393 96.31383870115 l 61.31779494314744 -10.932950935389426 a83.28484079489576,83.28484079489576 0 0,0 0.2394960237708735,1.4135190893882723 l -61.49690282843854 9.875846057685315" fill="red" stroke="none" /><path d="M 120.78858239683441 97.02765380044208 l 61.72744987062953 -8.82577501096496 a83.35521126638298,83.35521126638298 0 0,0 0.1908596217650963,1.4221258709557079 l -61.870225491452466 7.761930797944589" fill="red" stroke="none" /><path d="M 120.87857604477298 97.74499172005257 l 62.63572813431897 -6.7650248398422885 a84.0,84.0 0 0,0 0.1428914972710853,1.43889787718226 l -62.74289675727228 5.6858514319555935" fill="red" stroke="none" /><path d="M 120.94382443527127 98.46500227214037 l 51.506401293757165 -3.774965226646759 a72.6445518587967,72.6445518587967 0 0,0 0.08066800076648704,1.2478982673552967 l -51.56374988552807 2.887807895038427" fill="red" stroke="none" /><line stroke="#e1ed5e" stroke-width="0.3" x1="184.98032266829074" x2="189.97916517819016" y1="98.17113171792111" y2="98.06355123074" /><path d="M 185.9800911702706 98.14961562048488 a86.0,86.0 0 0,1 -9.607161424134198,41.387399972396054" fill="none" id="id28" stroke="none" /><text fill="#e1ed5e" style="font-size:6.75px; font-family:Arial;" text-anchor="middle"><textPath startOffset="21.466115282336823" xlink:href="#id28">April</textPath></text><path d="M 120.95626037817324 101.35467743843564 l 61.91011373419424 4.002061091684539 a83.03933168210665,83.03933168210665 0 0,0 -0.10448499567879765,1.4256147523216327 l -61.832052179851104 -5.067148980502942" fill="red" stroke="none" /><path d="M 120.8583938346157 102.4346265915055 l 61.921755393719295 7.227610786793173 a83.34213782607213,83.34213782607213 0 0,0 -0.1785843056340198,1.4234926265688097 l -61.78816957883843 -8.292421167649378" fill="red" stroke="none" /><path d="M 120.76222939487914 103.15116336523771 l 61.82707815741464 9.38373331514129 a83.53512648434278,83.53512648434278 0 0,0 -0.22800413806144765,1.4197819853555802 l -61.6563922649919 -10.446594530190076" fill="red" stroke="none" /><path d="M 120.64145759157962 103.86396538481128 l 61.43389446343114 11.500081358483245 a83.50100207353262,83.50100207353262 0 0,0 -0.2766271576597559,1.4105159172217505 l -61.226837372795714 -12.555861002772941" fill="red" stroke="none" /><path d="M 120.32669344350535 105.2749913415812 l 60.561690826863355 15.716397535640246 a83.56775165615961,83.56775165615961 0 0,0 -0.37331673993604597,1.3892504665380674 l -60.282186010585534 -16.75653893535386" fill="red" stroke="none" /><line stroke="#e1ed5e" stroke-width="0.3" x1="174.80103733775053" x2="179.2010983576182" y1="140.37084112569926" y2="142.7455964860345" /><path d="M 175.68104954172406 140.8457921977663 a86.0,86.0 0 0,1 -30.038265399797805,32.042727171017184" fill="none" id="id29" stroke="none" /><text fill="#e1ed5e" style="font-size:6.75px; font-family:Arial;" text-anchor="middle"><textPath startOffset="22.206326154141568" xlink:href="#id29">May</textPath></text><path d="M 117.55443506779139 111.5257021239791 l 31.55721821674876 20.719498840210445 a58.751233804592154,58.751233804592154 0 0,0 -0.5623245499053185,0.8405989049116129 l -31.19589056143272 -21.259634659327865" fill="red" stroke="none" /><path d="M 117.14729908036423 112.12312394758627 l 51.050182288105255 36.09242974797563 a83.52027348597679,83.52027348597679 0 0,0 -0.8400556907883073,1.1667638811579282 l -50.421346804941344 -36.96582723458469" fill="red" stroke="none" /><line stroke="#e1ed5e" stroke-width="0.3" x1="143.8653032363475" x2="146.44561519142675" y1="172.8068346515853" y2="177.08958963109032" /><path d="M 144.38136562736335 173.6633856474863 a86.0,86.0 0 0,1 -40.68145358897372,12.25698825130547" fill="none" id="id30" stroke="none" /><text fill="#e1ed5e" style="font-size:6.75px; font-family:Arial;" text-anchor="middle"><textPath startOffset="21.466115282336833" xlink:href="#id30">June</textPath></text><line stroke="#e1ed5e" stroke-width="0.3" x1="102.19456741930631" x2="102.32365962044197" y1="184.97166512339345" y2="189.96999836594603" /><path d="M 102.22038585953345 185.97133177190398 a86.0,86.0 0 0,1 -42.740103519485714,-10.115201625700543" fill="none" id="id31" stroke="none" /><text fill="#e1ed5e" style="font-size:6.75px; font-family:Arial;" text-anchor="middle"><textPath startOffset="22.20632615414155" xlink:href="#id31">July</textPath></text><line stroke="#e1ed5e" stroke-width="0.3" x1="58.666819895761336" x2="56.23545636021788" y1="174.27360380694188" y2="178.64263932499728" /><path d="M 58.180547188652646 175.14741091055294 a86.0,86.0 0 0,1 -31.652253787137756,-30.449443065178592" fill="none" id="id32" stroke="none" /><text fill="#e1ed5e" style="font-size:6.75px; font-family:Arial;" text-anchor="middle"><textPath startOffset="22.20632615414155" xlink:href="#id32">August</textPath></text><line stroke="#e1ed5e" stroke-width="0.3" x1="26.63291911575756" x2="22.317208475507996" y1="142.92168965132927" y2="145.44649492493687" /><path d="M 25.769776987707644 143.4266507060508 a86.0,86.0 0 0,1 -11.730757126820373,-40.83630448921669" fill="none" id="id33" stroke="none" /><text fill="#e1ed5e" style="font-size:6.75px; font-family:Arial;" text-anchor="middle"><textPath startOffset="21.46611528233685" xlink:href="#id33">September</textPath></text><line stroke="#e1ed5e" stroke-width="0.3" x1="15.007084014347285" x2="10.007500721073583" y1="101.09737516637583" y2="101.16192664675087" /><path d="M 14.007167355692545 101.11028546245083 a86.0,86.0 0 0,1 10.666146001902534,-42.60595125391555" fill="none" id="id34" stroke="none" /><text fill="#e1ed5e" style="font-size:6.75px; font-family:Arial;" text-anchor="middle"><textPath startOffset="22.20632615414155" xlink:href="#id34">October</textPath></text><line stroke="#e1ed5e" stroke-width="0.3" x1="26.266209847984243" x2="21.928928074336255" y1="57.711370442889674" y2="55.22380399835377" /><path d="M 25.398753493254645 57.213857153982495 a86.0,86.0 0 0,1 29.58750427330803,-30.492523968695096" fill="none" id="id35" stroke="none" /><text fill="#e1ed5e" style="font-size:6.75px; font-family:Arial;" text-anchor="middle"><textPath startOffset="21.46611528233685" xlink:href="#id35">November</textPath></text><line stroke="#e1ed5e" stroke-width="0.3" x1="56.762969772571076" x2="54.21961505331055" y1="26.818313649435495" y2="22.513508569990535" /><path d="M 56.25429882871897 25.957352633546506 a86.0,86.0 0 0,1 42.265352541879196,-11.944610805530505" fill="none" id="id36" stroke="none" /><text fill="#e1ed5e" style="font-size:6.75px; font-family:Arial;" text-anchor="middle"><textPath startOffset="22.20632615414155" xlink:href="#id36">December</textPath></text></svg>