<?xml version="1.0" encoding="utf-8" ?>
<svg baseProfile="full" height="200mm" version="1.1" viewBox="0,0,200,200" width="200mm" xmlns="http://www.w3.org/2000/svg" xmlns:ev="http://www.w3.org/2001/xml-events" xmlns:xlink="http://www.w3.org/1999/xlink"><defs /><rect fill="#1a1a1a" height="200" width="200" x="0" y="0" /><text alignment-baseline="middle" fill="#e1ed5e" style="dominant-baseline: central; font-size:9.0px; font-family:Arial;" text-anchor="middle" x="100.0" y="100.0">2025</text><line stroke="#e1ed5e" stroke-width="0.3" x1="100.0" x2="100.0" y1="15.0" y2="10.0" /><path d="M 100.0 14.0 a86.0,86.0 0 0,1 42.46469731375804,11.215312516191453" fill="none" id="id73" stroke="none" /><text fill="#e1ed5e" style="font-size:6.75px; font-family:Arial;" text-anchor="middle"><textPath startOffset="22.20632615414155" xlink:href="#id73">January</textPath></text><path d="M 100.0 79.0 l 0.0 -43.49054992268668 a64.49054992268668,64.49054992268668 0 0,0 1.1100988045048428,0.009554970881073587 l -0.7486183252323144 43.48410632841417" fill="red" stroke="none" /><path d="M 103.59715602781102 79.31037775812273 l 8.967187020333887 -51.57622037759424 a73.34994700566384,73.34994700566384 0 0,0 1.2420761439075108,0.2269814761481858 l -9.853658285344299 51.41422342009532" fill="red" stroke="none" /><path d="M 104.307194497241 79.44645832069477 l 10.690729246870214 -51.01519081584661 a73.12332861403928,73.12332861403928 0 0,0 1.2297159778171662,0.2687682830144679 l -11.56728794884091 50.82360903473627" fill="red" stroke="none" /><path d="M 105.01212808612495 79.60689891045804 l 14.422201470859571 -58.68034644668651 a81.42667419583191,81.42667419583191 0 0,0 1.3582400092733502,0.34624562083912147 l -15.430150368817946 58.42339782967852" fill="red" stroke="none" /><path d="M 105.71112130821622 79.79150937346287 l 14.3919263960463 -50.92504500892017 a73.91963486788018,73.91963486788018 0 0,0 1.2214684000698506,0.3565801208493112 l -15.266385013839578 50.66976655915215" fill="red" stroke="none" /><path d="M 108.09893153111575 80.62456947434976 l 20.82238126917669 -49.81429959118986 a74.99107338699406,74.99107338699406 0 0,0 1.18670246224936,0.5080840628608814 l -21.676767489216367 49.448496000366184" fill="red" stroke="none" /><path d="M 108.76106565485865 80.91482961587045 l 22.769152346895865 -49.60049030128196 a75.57694510252217,75.57694510252217 0 0,0 1.1776391981409235,0.5529173939448352 l -23.619569756336386 49.20120792469712" fill="red" stroke="none" /><line stroke="#e1ed5e" stroke-width="0.3" x1="143.23703022742887" x2="145.7803849466894" y1="26.81831364943548" y2="22.513508569990506" /><path d="M 143.74570117128098 25.957352633546492 a86.0,86.0 0 0,1 28.547481713284135,27.462654790039103" fill="none" id="id74" stroke="none" /><text fill="#e1ed5e" style="font-size:6.75px; font-family:Arial;" text-anchor="middle"><textPath startOffset="19.985693538727396" xlink:href="#id74">February</textPath></text><path d="M 111.90073688211348 82.69761687909136 l 30.528518595640648 -44.3851611953084 a74.87052052818765,74.87052052818765 0 0,0 1.0555633186456852,0.7394895613190491 l -31.288013053869985 43.853086791225415" fill="red" stroke="none" /><path d="M 112.48926042617603 83.11751280151076 l 31.93398502714131 -43.16709516982425 a74.69522795476661,74.69522795476661 0 0,0 1.027073065134915,0.7735701392019435 l -32.67230424603461 42.61100844111646" fill="red" stroke="none" /><path d="M 113.06298171725822 83.55741782278167 l 33.6845074119662 -42.39922348575585 a75.15108670914995,75.15108670914995 0 0,0 1.0059388127679663,0.8133992282364042 l -34.40934962329866 41.813118160255314" fill="red" stroke="none" /><path d="M 114.94478906791727 85.2469230424477 l 38.215108258838725 -37.72488393925595 a74.6988022907876,74.6988022907876 0 0,0 0.8954456188174905,0.9228354220834973 l -38.85881814135932 37.061484321622345" fill="red" stroke="none" /><path d="M 115.4437574822437 85.77008943001954 l 46.331272446731084 -42.689731709941405 a84.0,84.0 0 0,0 0.9706254375358574,1.0717888509218039 l -47.05924152488298 41.88589007175005" fill="red" stroke="none" /><path d="M 115.9244219780498 86.31012108654704 l 42.08512921759858 -36.17966943102215 a76.49888810958295,76.49888810958295 0 0,0 0.8498275560001081,1.0059277768945565 l -42.7016673870858 35.449882704498485" fill="red" stroke="none" /><path d="M 117.04232023915458 87.72973835380427 l 44.26989055339614 -31.87377848296825 a75.5505358762955,75.5505358762955 0 0,0 0.7507830192588982,1.0619293369721219 l -44.81198619245892 31.107022645664333" fill="red" stroke="none" /><path d="M 117.45458315368197 88.32363383020206 l 45.059347370585485 -30.142767354492413 a75.21191021583857,75.21191021583857 0 0,0 0.7105855260942873,1.0822705067123553 l -45.571529532037694 29.362678783802384" fill="red" stroke="none" /><line stroke="#e1ed5e" stroke-width="0.3" x1="172.23445277983987" x2="176.4835382374775" y1="55.19839476539836" y2="52.563006222186495" /><path d="M 173.08426987136738 54.67131705675599 a86.0,86.0 0 0,1 12.851231095245387,41.99856678651699" fill="none" id="id75" stroke="none" /><text fill="#e1ed5e" style="font-size:6.75px; font-family:Arial;" text-anchor="middle"><textPath startOffset="22.20632615414155" xlink:href="#id75">March</textPath></text><path d="M 118.03404312379186 89.2402003453031 l 46.73502374130359 -27.883902065783563 a75.4212682552917,75.4212682552917 0 0,0 0.6555915647229388,1.120618497239553 l -47.20807498049686 27.075304156190114" fill="red" stroke="none" /><path d="M 119.196687751892 91.48605970444005 l 49.13791696986098 -21.793201865688797 a74.75386992297032,74.75386992297032 0 0,0 0.5115631230067925,1.180758218995766 l -49.50577080271045 20.94414450210643" fill="red" stroke="none" /><path d="M 119.47837535516314 92.15188598940014 l 50.78985063818436 -20.463952004300523 a75.7574858762105,75.7574858762105 0 0,0 0.47693467988480986,1.2137467385545038 l -51.13457886795087 19.586656260850237" fill="red" stroke="none" /><path d="M 119.7369772167798 92.82701384747503 l 51.06448934120837 -18.5583066194575 a75.33224471950504,75.33224471950504 0 0,0 0.4324319055532298,1.2225432289056404 l -51.37637432757141 17.676565764125243" fill="red" stroke="none" /><path d="M 120.28053869075195 94.5502522615342 l 52.128225880417745 -14.007797595218003 a74.97749833873787,74.97749833873787 0 0,0 0.3242015179212231,1.249280698672834 l -52.361623730209274 13.108420470996318" fill="red" stroke="none" /><path d="M 120.53481517161879 95.60439243477599 l 52.99392182990289 -11.343685431771446 a75.1944180713184,75.1944180713184 0 0,0 0.26003198017148677,1.268008283794272 l -53.181333105989374 10.429801491813762" fill="red" stroke="none" /><path d="M 120.78858239683441 97.02765380044208 l 52.935386350940654 -7.568688015316887 a74.47373342489334,74.47373342489334 0 0,0 0.1705235746747156,1.2705986992430955 l -53.0578259246732 6.6563709740091275" fill="red" stroke="none" /><path d="M 120.87857604477298 97.74499172005257 l 53.921961754582966 -5.823887125579847 a75.23555679362205,75.23555679362205 0 0,0 0.12798239712219558,1.2887652733210493 l -54.01422127738739 4.894846321554363" fill="red" stroke="none" /><line stroke="#e1ed5e" stroke-width="0.3" x1="184.98032266829074" x2="189.97916517819016" y1="98.17113171792111" y2="98.06355123074" /><path d="M 185.9800911702706 98.14961562048488 a86.0,86.0 0 0,1 -9.607161424134198,41.387399972396054" fill="none" id="id76" stroke="none" /><text fill="#e1ed5e" style="font-size:6.75px; font-family:Arial;" text-anchor="middle"><textPath startOffset="21.466115282336823" xlink:href="#id76">April</textPath></text><line stroke="#e1ed5e" stroke-width="0.3" x1="174.80103733775053" x2="179.2010983576182" y1="140.37084112569926" y2="142.7455964860345" /><path d="M 175.68104954172406 140.8457921977663 a86.0,86.0 0 0,1 -30.038265399797805,32.042727171017184" fill="none" id="id77" stroke="none" /><text fill="#e1ed5e" style="font-size:6.75px; font-family:Arial;" text-anchor="middle"><textPath startOffset="22.206326154141568" xlink:href="#id77">May</textPath></text><line stroke="#e1ed5e" stroke-width="0.3" x1="143.8653032363475" x2="146.44561519142675" y1="172.8068346515853" y2="177.08958963109032" /><path d="M 144.38136562736335 173.6633856474863 a86.0,86.0 0 0,1 -40.68145358897372,12.25698825130547" fill="none" id="id78" stroke="none" /><text fill="#e1ed5e" style="font-size:6.75px; font-family:Arial;" text-anchor="middle"><textPath startOffset="21.466115282336833" xlink:href="#id78">June</textPath></text><line stroke="#e1ed5e" stroke-width="0.3" x1="102.19456741930631" x2="102.32365962044197" y1="184.97166512339345" y2="189.96999836594603" /><path d="M 102.22038585953345 185.97133177190398 a86.0,86.0 0 0,1 -42.740103519485714,-10.115201625700543" fill="none" id="id79" stroke="none" /><text fill="#e1ed5e" style="font-size:6.75px; font-family:Arial;" text-anchor="middle"><textPath startOffset="22.20632615414155" xlink:href="#id79">July</textPath></text><line stroke="#e1ed5e" stroke-width="0.3" x1="58.666819895761336" x2="56.23545636021788" y1="174.27360380694188" y2="178.64263932499728" /><path d="M 58.180547188652646 175.14741091055294 a86.0,86.0 0 0,1 -31.652253787137756,-30.449443065178592" fill="none" id="id80" stroke="none" /><text fill="#e1ed5e" style="font-size:6.75px; font-family:Arial;" text-anchor="middle"><textPath startOffset="22.20632615414155" xlink:href="#id80">August</textPath></text><line stroke="#e1ed5e" stroke-width="0.3" x1="26.63291911575756" x2="22.317208475507996" y1="142.92168965132927" y2="145.44649492493687" /><path d="M 25.769776987707644 143.4266507060508 a86.0,86.0 0 0,1 -11.730757126820373,-40.83630448921669" fill="none" id="id81" stroke="none" /><text fill="#e1ed5e" style="font-size:6.75px; font-family:Arial;" text-anchor="middle"><textPath startOffset="21.46611528233685" xlink:href="#id81">September</textPath></text><line stroke="#e1ed5e" stroke-width="0.3" x1="15.007084014347285" x2="10.007500721073583" y1="101.09737516637583" y2="101.16192664675087" /><path d="M 14.007167355692545 101.11028546245083 a86.0,86.0 0 0,1 10.666146001902534,-42.60595125391555" fill="none" id="id82" stroke="none" /><text fill="#e1ed5e" style="font-size:6.75px; font-family:Arial;" text-anchor="middle"><textPath startOffset="22.20632615414155" xlink:href="#id82">October</textPath></text><line stroke="#e1ed5e" stroke-width="0.3" x1="26.266209847984243" x2="21.928928074336255" y1="57.711370442889674" y2="55.22380399835377" /><path d="M 25.398753493254645 57.213857153982495 a86.0,86.0 0 0,1 29.58750427330803,-30.492523968695096" fill="none" id="id83" stroke="none" /><text fill="#e1ed5e" style="font-size:6.75px; font-family:Arial;" text-anchor="middle"><textPath startOffset="21.46611528233685" xlink:href="#id83">November</textPath></text><line stroke="#e1ed5e" stroke-width="0.3" x1="56.762969772571076" x2="54.21961505331055" y1="26.818313649435495" y2="22.513508569990535" /><path d="M 56.25429882871897 25.957352633546506 a86.0,86.0 0 0,1 42.265352541879196,-11.944610805530505" fill="none" id="id84" stroke="none" /><text fill="#e1ed5e" style="font-size:6.75px; font-family:Arial;" text-anchor="middle"><textPath startOffset="22.20632615414155" xlink:href="#id84">December</textPath></text></svg>