<?xml version="1.0" encoding="utf-8" ?>
<svg baseProfile="full" height="200mm" version="1.1" viewBox="0,0,200,200" width="200mm" xmlns="http://www.w3.org/2000/svg" xmlns:ev="http://www.w3.org/2001/xml-events" xmlns:xlink="http://www.w3.org/1999/xlink"><defs /><rect fill="#1a1a1a" height="200" width="200" x="0" y="0" /><text alignment-baseline="middle" fill="#e1ed5e" style="dominant-baseline: central; font-size:9.0px; font-family:Arial;" text-anchor="middle" x="100.0" y="100.0">2024</text><line stroke="#e1ed5e" stroke-width="0.3" x1="100.0" x2="100.0" y1="15.0" y2="10.0" /><path d="M 100.0 14.0 a86.0,86.0 0 0,1 42.35913384403234,11.155469271406648" fill="none" id="id61" stroke="none" /><text fill="#e1ed5e" style="font-size:6.75px; font-family:Arial;" text-anchor="middle"><textPath startOffset="22.145653131862478" xlink:href="#id61">January</textPath></text><line stroke="#e1ed5e" stroke-width="0.3" x1="143.13028292997686" x2="145.6673583964461" y1="26.7553504044142" y2="22.446841604673864" /><path d="M 143.63769802327073 25.89364864446614 a86.0,86.0 0 0,1 29.32050498858742,28.57503671076993" fill="none" id="id62" stroke="none" /><text fill="#e1ed5e" style="font-size:6.75px; font-family:Arial;" text-anchor="middle"><textPath startOffset="20.669276256404974" xlink:href="#id62">February</textPath></text><line stroke="#e1ed5e" stroke-width="0.3" x1="172.87174338648825" x2="177.1583165268699" y1="56.24261187166439" y2="53.66864786411523" /><path d="M 173.72905801456457 55.72781907015455 a86.0,86.0 0 0,1 12.242430191666344,42.057860355516425" fill="none" id="id63" stroke="none" /><text fill="#e1ed5e" style="font-size:6.75px; font-family:Arial;" text-anchor="middle"><textPath startOffset="22.145653131862474" xlink:href="#id63">March</textPath></text><line stroke="#e1ed5e" stroke-width="0.3" x1="184.99686870605535" x2="189.99668451229388" y1="99.2704041080226" y2="99.22748670261217" /><path d="M 185.99683186730306 99.26182062694052 a86.0,86.0 0 0,1 -10.086455211305974,41.156179273409016" fill="none" id="id64" stroke="none" /><text fill="#e1ed5e" style="font-size:6.75px; font-family:Arial;" text-anchor="middle"><textPath startOffset="21.40746469413373" xlink:href="#id64">April</textPath></text><line stroke="#e1ed5e" stroke-width="0.3" x1="174.33088141563837" x2="178.70328620479359" y1="141.23008692659167" y2="143.65538615756765" /><path d="M 175.20536237346943 141.71514677278685 a86.0,86.0 0 0,1 -30.301960400862466,31.631185727798858" fill="none" id="id65" stroke="none" /><text fill="#e1ed5e" style="font-size:6.75px; font-family:Arial;" text-anchor="middle"><textPath startOffset="22.145653131862474" xlink:href="#id65">May</textPath></text><path d="M 113.59037401385872 116.0094264158162 l 33.97678081415819 40.02456236567821 a73.50130690808956,73.50130690808956 0 0,0 -0.9689070583239427,0.8082967284275034 l -33.28469942167236 -40.60192127801758" fill="red" stroke="none" /><path d="M 112.7482090630111 116.68781488649013 l 29.760715136841604 38.95773144591587 a70.0245347236293,70.0245347236293 0 0,0 -0.9614935852606079,0.7215227113754131 l -29.08756856267023 -39.4628731845553" fill="red" stroke="none" /><path d="M 111.5731344415666 117.5232005979908 l 25.0709219951323 37.96057131414553 a66.49237413218107,66.49237413218107 0 0,0 -0.9578523104917678,0.6208682952174627 l -24.41558405238352 -38.38535345106689" fill="red" stroke="none" /><line stroke="#e1ed5e" stroke-width="0.3" x1="143.1302829299769" x2="145.66735839644613" y1="173.24464959558577" y2="177.55315839532614" /><path d="M 143.63769802327073 174.10635135553383 a86.0,86.0 0 0,1 -40.68552437913181,11.842963189579606" fill="none" id="id66" stroke="none" /><text fill="#e1ed5e" style="font-size:6.75px; font-family:Arial;" text-anchor="middle"><textPath startOffset="21.407464694133747" xlink:href="#id66">June</textPath></text><path d="M 110.34350942703117 118.27599006163325 l 23.78859208421432 42.03216283393819 a69.29699603337498,69.29699603337498 0 0,0 -1.0402990829926444,0.5770363650284422 l -23.06354881306558 -42.43433211439977" fill="red" stroke="none" /><path d="M 109.71004243097381 118.62028667847754 l 18.180890512660373 34.86425479829727 a60.31998273745727,60.31998273745727 0 0,0 -0.9222430687478171,0.47090388214466206 l -17.579720222198972 -35.17121663211476" fill="red" stroke="none" /><path d="M 109.06512990194946 118.94263497670748 l 25.180763447532293 52.618110890925635 a79.33297902156485,79.33297902156485 0 0,0 -1.2334815720350456,0.5773316578481593 l -24.27379316162574 -53.04261878034433" fill="red" stroke="none" /><path d="M 107.74402155503746 119.51999308798841 l 16.65978949758402 41.993552513892574 a66.17750589442565,66.17750589442565 0 0,0 -1.0595577657478028,0.40985970568449903 l -15.936459469342687 -42.27335210771511" fill="red" stroke="none" /><path d="M 107.06938296918513 119.77432235084164 l 12.5604457446477 35.133802215492445 a58.31151103106895,58.31151103106895 0 0,0 -0.9454634728291437,0.3288812745625588 l -11.955476499773534 -35.34424192262359" fill="red" stroke="none" /><path d="M 106.38641147887787 120.00534299687104 l 15.14062680185872 47.42779781111472 a70.7858874096379,70.7858874096379 0 0,0 -1.16075159000016,0.3596038097140411 l -14.324234578986934 -47.680718208635405" fill="red" stroke="none" /><path d="M 105.69591212413111 120.21278271476187 l 17.08773637239333 60.63834814428561 a84.0,84.0 0 0,0 -1.3912743962612195,0.3791980234234318 l -16.044280575197412 -60.92274666185318" fill="red" stroke="none" /><path d="M 104.9986988182912 120.39639698878246 l 7.431629751653157 30.323585436615975 a52.22096978790705,52.22096978790705 0 0,0 -0.8725075809094185,0.20590941337965105 l -6.909990017003859 -30.44669099364185" fill="red" stroke="none" /><path d="M 104.29559338865022 120.5559693870025 l 6.78289244668987 32.458595792117 a54.159735685608204,54.159735685608204 0 0,0 -0.9116979479798502,0.18236512318615752 l -6.2246980131790615 -32.57025031196602" fill="red" stroke="none" /><path d="M 102.875027216393 120.80226474461374 l 4.327477295665201 31.311469981029735 a52.60910014722697,52.60910014722697 0 0,0 -0.8956628606191864,0.11596148910231985 l -3.789336613155239 -31.38114306633245" fill="red" stroke="none" /><path d="M 102.15924093988457 120.88869738790638 l 3.2148058440571154 31.100330304487493 a52.26604422793531,52.26604422793531 0 0,0 -0.8932526711211469,0.08459195666647369 l -2.6804536095509532 -31.15093401665915" fill="red" stroke="none" /><path d="M 101.08105385017728 120.97215588758144 l 1.865587309641356 36.19189541138588 a57.23994632278846,57.23994632278846 0 0,0 -0.9817311490504608,0.0421597596693734 l -1.2440303999900657 -36.21858773948108" fill="red" stroke="none" /><line stroke="#e1ed5e" stroke-width="0.3" x1="101.45913802915013" x2="101.54496967792366" y1="184.9874750549273" y2="189.98673829345242" /><path d="M 101.47630435890484 185.9873277026323 a86.0,86.0 0 0,1 -42.54439059252881,-10.42667462771756" fill="none" id="id67" stroke="none" /><text fill="#e1ed5e" style="font-size:6.75px; font-family:Arial;" text-anchor="middle"><textPath startOffset="22.145653131862474" xlink:href="#id67">July</textPath></text><path d="M 100.36049292484886 120.99690560180557 l 0.7044721694740463 41.03197211914078 a62.03801916544596,62.03801916544596 0 0,0 -1.0649650943228937,0.009141444499613065 l -5.0257078814311126e-15 -41.03801916544596" fill="red" stroke="none" /><path d="M 99.63950707515114 120.99690560180557 l -0.5895231599003105 34.33676858899509 a55.34182893630243,55.34182893630243 0 0,0 -0.9497361106484685,-0.0244618332643849 l 1.178872584619523 -34.32158903838066" fill="red" stroke="none" /><path d="M 98.91894614982273 120.97215588758144 l -1.75399995987924 34.027130636801424 a55.072307453901715,55.072307453901715 0 0,0 -0.9437181370659479,-0.056771739667021835 l 2.337862449077634 -33.99200691930971" fill="red" stroke="none" /><path d="M 97.48249496171623 120.84855314841334 l -3.356306460626391 27.79503220952243 a48.99693927174954,48.99693927174954 0 0,0 -0.8341663071009708,-0.10799952904549369 l 3.8329505896181555 -27.733321084276536" fill="red" stroke="none" /><path d="M 96.76829788921471 120.74984581791261 l -4.909541832556286 31.522780432686773 a52.90281002063925,52.90281002063925 0 0,0 -0.8961295083833908,-0.1474577695872128 l 5.44994884399274 -31.43385666460389" fill="red" stroke="none" /><path d="M 95.70440661134978 120.55596938700252 l -6.65868914417906 31.864238027501177 a53.55253916658515,53.55253916658515 0 0,0 -0.8982484276165237,-0.19576906405026942 l 7.20469998841472 -31.74523750531719" fill="red" stroke="none" /><path d="M 94.30408787586889 120.21278271476187 l -9.294091190859033 32.98145085071395 a55.26596315999396,55.26596315999396 0 0,0 -0.9109409430437564,-0.2651616323244878 l 9.858892146284395 -32.81704552408694" fill="red" stroke="none" /><path d="M 92.93061703081489 119.77432235084164 l -9.986052048065787 27.932764863847442 a50.66412965933215,50.66412965933215 0 0,0 -0.8164424332723957,-0.29980897040368365 l 10.4640836329923 -27.75722504443504" fill="red" stroke="none" /><path d="M 92.25597844496254 119.51999308798841 l -12.0153345657924 30.286492103262397 a53.58281554207526,53.58281554207526 0 0,0 -0.8520829622443591,-0.34653472280833475 l 12.5334719892272 -30.07577012387477" fill="red" stroke="none" /><path d="M 90.93487009805054 118.94263497670748 l -14.266953571976563 29.812445785853185 a54.050384081873695,54.050384081873695 0 0,0 -0.8335077575411137,-0.4077104118197364 l 14.776621578779746 -29.56314162393623" fill="red" stroke="none" /><path d="M 89.97174638481275 118.45085714620012 l -15.492062726848458 28.503650510011056 a53.44167227393589,53.44167227393589 0 0,0 -0.8022760847150077,-0.44500902023430083 l 15.979082999719568 -28.233508574343606" fill="red" stroke="none" /><line stroke="#e1ed5e" stroke-width="0.3" x1="58.13341422392154" x2="55.67067388415222" y1="173.97424548756322" y2="178.32567169271397" /><path d="M 57.64086615596768 174.84453072859336 a86.0,86.0 0 0,1 -31.369924170532247,-30.572349798747897" fill="none" id="id68" stroke="none" /><text fill="#e1ed5e" style="font-size:6.75px; font-family:Arial;" text-anchor="middle"><textPath startOffset="22.145653131862474" xlink:href="#id68">August</textPath></text><path d="M 87.83215693770417 117.11559508785305 l -18.94062713774171 26.64236406895454 a53.68888067147111,53.68888067147111 0 0,0 -0.7465796518017309,-0.5404660933234539 l 19.395187799917394 -26.31329720425802" fill="red" stroke="none" /><path d="M 86.13680546590413 115.77377054828092 l -21.27579067061696 24.20794424013723 a53.22861822966515,53.22861822966515 0 0,0 -0.6811614901037188,-0.6090988047009248 l 21.68821718754405 -23.839149905552922" fill="red" stroke="none" /><path d="M 83.20337586046588 112.60449989151573 l -22.224529973287098 16.67770162088387 a48.78624594810837,48.78624594810837 0 0,0 -0.4969180704946151,-0.6741647985046539 l 22.507550063365542 -16.293730513110336" fill="red" stroke="none" /><path d="M 82.78059297857968 112.02048342749411 l -27.33037970843691 19.07872762074296 a54.33087911582652,54.33087911582652 0 0,0 -0.527294798650065,-0.7693388696264183 l 27.6538642439023 -18.60675401604649" fill="red" stroke="none" /><path d="M 81.99639281039703 110.81064883170644 l -27.7780850343032 16.679941933889452 a53.401272677024636,53.401272677024636 0 0,0 -0.46516650881698096,-0.789954427083562 l 28.06032525324995 -16.200636338512332" fill="red" stroke="none" /><line stroke="#e1ed5e" stroke-width="0.3" x1="26.387840678322732" x2="22.057713659400548" y1="142.50000000000003" y2="145.00000000000006" /><path d="M 25.521815274538298 143.00000000000003 a86.0,86.0 0 0,1 -11.493303480769221,-40.785679425670985" fill="none" id="id69" stroke="none" /><text fill="#e1ed5e" style="font-size:6.75px; font-family:Arial;" text-anchor="middle"><textPath startOffset="21.40746469413373" xlink:href="#id69">September</textPath></text><path d="M 79.56144815229197 104.8234425847677 l -31.011688332629298 7.318674006051073 a52.863581130296446,52.863581130296446 0 0,0 -0.20085426635060746,-0.8850009576400473 l 31.13275346053757 -6.785238714471999" fill="red" stroke="none" /><path d="M 79.17382384314188 102.69636545807758 l -33.571556365748556 4.3465100975197535 a54.85175840110043,54.85175840110043 0 0,0 -0.1128846934802217,-0.9348471982678048 l 33.64122314548844 -3.769569222328549" fill="red" stroke="none" /><path d="M 79.0935383218832 101.97986365728391 l -30.548723647744577 2.8929958908296345 a51.68540274675608,51.68540274675608 0 0,0 -0.07606707420526036,-0.8840147059308062 l 30.593884344647577 -2.3681601375231662" fill="red" stroke="none" /><path d="M 79.03789590574601 101.26102812881392 l -36.77198929058225 2.212111562816787 a57.83846676984594,57.83846676984594 0 0,0 -0.05111381007224667,-0.9915942602374849 l 36.80454469011107 -1.5805455092025715" fill="red" stroke="none" /><line stroke="#e1ed5e" stroke-width="0.3" x1="15.003131293944662" x2="10.003315487706104" y1="100.72959589197737" y2="100.7725132973878" /><path d="M 14.003168132696942 100.73817937305945 a86.0,86.0 0 0,1 10.791469493833604,-42.45332614584628" fill="none" id="id70" stroke="none" /><text fill="#e1ed5e" style="font-size:6.75px; font-family:Arial;" text-anchor="middle"><textPath startOffset="22.145653131862435" xlink:href="#id70">October</textPath></text><path d="M 79.00077361379809 100.18025310272382 l -36.79874417191473 0.31587296080993793 a57.800099841677046,57.800099841677046 0 0,0 0.0,-0.9922521270674974 l 36.79874417191473 0.3158729608099244" fill="red" stroke="none" /><path d="M 79.0935383218832 98.0201363427161 l -35.86681324885578 -3.396624505251763 a57.027286196131584,57.027286196131584 0 0,0 0.10066024107400195,-0.9737965207814695 l 35.80322061530011 4.011825548316145" fill="red" stroke="none" /><path d="M 79.2786578344484 96.59031103205396 l -44.49931416483043 -7.322345211847823 a66.09773498238852,66.09773498238852 0 0,0 0.1938400510590631,-1.118017903519651 l 44.36705929627913 8.085156148288066" fill="red" stroke="none" /><path d="M 79.407916724674 95.88100663000787 l -34.3458357527278 -6.870129061775798 a56.02620600177546,56.02620600177546 0 0,0 0.1967381278284058,-0.9414631616629161 l 34.222839914075024 7.458708674724123" fill="red" stroke="none" /><path d="M 79.56144815229197 95.17655741523228 l -31.976262708775916 -7.546310932421834 a53.854652418028145,53.854652418028145 0 0,0 0.22006671107600081,-0.8979472791393766 l 31.842008471183618 8.094114036169328" fill="red" stroke="none" /><path d="M 79.73907114497095 94.47779374421319 l -36.64865543896186 -9.988754009220884 a58.985512398024525,58.985512398024525 0 0,0 0.27465201657296545,-0.9746431146016709 l 36.47178493031431 10.616405047725568" fill="red" stroke="none" /><path d="M 80.28708602549916 92.7611449362534 l -33.60691181075044 -12.340923521140484 a56.80115800934651,56.80115800934651 0 0,0 0.34396973440936995,-0.9124205865836655 l 33.390111392526634 12.916012387918293" fill="red" stroke="none" /><path d="M 80.68587082218212 91.75594674310238 l -33.35095324148978 -14.235538768525904 a57.26205518370742,57.26205518370742 0 0,0 0.3936524102191172,-0.9007537518936192 l 33.10166694925369 14.80595459019539" fill="red" stroke="none" /><path d="M 80.9802524753101 91.09779779509293 l -32.56978904179608 -15.244305816617956 a56.96081225525464,56.96081225525464 0 0,0 0.42210875573186973,-0.8820449532203131 l 32.30330102810431 15.801163271903356" fill="red" stroke="none" /><path d="M 81.46374523516351 90.13048839642627 l -29.650610447533914 -15.78727998603669 a54.59161962854608,54.59161962854608 0 0,0 0.4475333900516244,-0.8234110309587643 l 29.37523170786694 16.293945850470074" fill="red" stroke="none" /><line stroke="#e1ed5e" stroke-width="0.3" x1="26.387840678322718" x2="22.05771365940052" y1="57.49999999999999" y2="54.99999999999999" /><path d="M 25.521815274538284 56.99999999999999 a86.0,86.0 0 0,1 29.574782752854787,-30.34633250058573" fill="none" id="id71" stroke="none" /><text fill="#e1ed5e" style="font-size:6.75px; font-family:Arial;" text-anchor="middle"><textPath startOffset="21.40746469413373" xlink:href="#id71">November</textPath></text><path d="M 83.8745106332314 86.54754324733833 l -24.87390996182579 -20.750700361418897 a53.39294618089572,53.39294618089572 0 0,0 0.5931840292559533,-0.6987692949234869 l 24.514031369062725 21.174636438791943" fill="red" stroke="none" /><path d="M 84.34580500576568 86.00192230759919 l -24.47506533543395 -21.885754343687232 a53.83313975796383,53.83313975796383 0 0,0 0.6219068321991993,-0.6835845506286704 l 24.09576080239288 22.30267646987356" fill="red" stroke="none" /><path d="M 85.34317274990677 84.96080404539775 l -23.80371365521523 -24.42470720296891 a55.105470319733776,55.105470319733776 0 0,0 0.6831176239790363,-0.6544112310261014 l 23.38092354537089 24.829730564300583" fill="red" stroke="none" /><path d="M 87.83215693770416 82.88440491214696 l -21.590131348235918 -30.369223547517187 a58.26155539578497,58.26155539578497 0 0,0 0.8201143700402681,-0.5725035235798582 l 21.065621887021884 30.735371886902172" fill="red" stroke="none" /><path d="M 88.4268655584334 82.4767994020092 l -20.634854947259267 -31.243800404890184 a58.442920591682565,58.442920591682565 0 0,0 0.8418963415164613,-0.5457070370679381 l 20.09547297348578 31.59342128366203" fill="red" stroke="none" /><line stroke="#e1ed5e" stroke-width="0.3" x1="56.869717070023135" x2="54.33264160355391" y1="26.7553504044142" y2="22.446841604673864" /><path d="M 56.362301976729285 25.89364864446614 a86.0,86.0 0 0,1 42.16139366436587,-11.88097634709845" fill="none" id="id72" stroke="none" /><text fill="#e1ed5e" style="font-size:6.75px; font-family:Arial;" text-anchor="middle"><textPath startOffset="22.145653131862474" xlink:href="#id72">December</textPath></text><path d="M 89.34428304082924 81.90426304109057 l -20.917711506546393 -35.52284718664992 a62.2240624746905,62.2240624746905 0 0,0 0.9250867135677824,-0.5340990631021025 l 20.304832325118213 35.87669314702819" fill="red" stroke="none" /><path d="M 89.97174638481275 81.54914285379989 l -21.041785421837048 -38.71451519049579 a65.06325476146495,65.06325476146495 0 0,0 0.9858978736393513,-0.5249350867943772 l 20.374098732411134 39.07002074501274" fill="red" stroke="none" /><path d="M 90.61103034731259 81.2157712731953 l -10.254001027798745 -20.51487093857316 a43.93478726093642,43.93478726093642 0 0,0 0.677515740728875,-0.3314068995372203 l 9.900325037807816 20.687871588207596" fill="red" stroke="none" /><path d="M 92.592206182469 80.34994680014964 l -15.582022212672856 -41.3331651747191 a65.17272868633816,65.17272868633816 0 0,0 1.0502456382742433,-0.38566474579219806 l 14.870187422744486 41.59456076952002" fill="red" stroke="none" /><path d="M 94.6519064749342 79.69241777938228 l -8.433653743110622 -32.023956949468634 a54.11586227414446,54.11586227414446 0 0,0 0.9003712300538347,-0.22887084580537986 l 7.882677219831409 32.16401302710928" fill="red" stroke="none" /><path d="M 95.35216902796891 79.52079915486377 l -11.785385306649227 -51.928582210620974 a74.24915921619237,74.24915921619237 0 0,0 1.2453973528749482,-0.2714285565630853 l 10.89222553715516 52.123242225317775" fill="red" stroke="none" /><path d="M 96.05791012581881 79.37332000966035 l -8.26779175850981 -43.26058011677669 a65.04354859229825,65.04354859229825 0 0,0 1.0985089282034968,-0.20018491997640336 l 7.523948096755275 43.396133210684454" fill="red" stroke="none" /><path d="M 96.76829788921471 79.25015418208739 l -6.2115342437341345 -39.88250569878425 a61.3633177337374,61.3633177337374 0 0,0 1.0422264224877553,-0.15317139306771554 l 5.525982715638694 39.98325816515085" fill="red" stroke="none" /><path d="M 97.48249496171623 79.15144685158666 l -5.441300146519433 -45.06177091050262 a66.389106015377,66.389106015377 0 0,0 1.13261110524419,-0.12691143674330457 l 4.666953139674444 45.14853810775289" fill="red" stroke="none" /><path d="M 99.63950707515114 79.00309439819443 l -0.5730278580554595 -33.37599995295292 a54.38091870793284,54.38091870793284 0 0,0 0.9335207829043034,-0.008013153174359003 l 8.17596704965359e-15 33.38091870793284" fill="red" stroke="none" /></svg>