<?xml version="1.0" encoding="utf-8" ?>
<svg baseProfile="full" height="200mm" version="1.1" viewBox="0,0,200,200" width="200mm" xmlns="http://www.w3.org/2000/svg" xmlns:ev="http://www.w3.org/2001/xml-events" xmlns:xlink="http://www.w3.org/1999/xlink"><defs /><rect fill="#1a1a1a" height="200" width="200" x="0" y="0" /><text alignment-baseline="middle" fill="#e1ed5e" style="dominant-baseline: central; font-size:9.0px; font-family:Arial;" text-anchor="middle" x="100.0" y="100.0">2021</text><line stroke="#e1ed5e" stroke-width="0.3" x1="100.0" x2="100.0" y1="15.0" y2="10.0" /><path d="M 100.0 14.0 a86.0,86.0 0 0,1 42.46469731375804,11.215312516191453" fill="none" id="id25" stroke="none" /><text fill="#e1ed5e" style="font-size:6.75px; font-family:Arial;" text-anchor="middle"><textPath startOffset="22.20632615414155" xlink:href="#id25">January</textPath></text><line stroke="#e1ed5e" stroke-width="0.3" x1="143.23703022742887" x2="145.7803849466894" y1="26.81831364943548" y2="22.513508569990506" /><path d="M 143.74570117128098 25.957352633546492 a86.0,86.0 0 0,1 28.547481713284135,27.462654790039103" fill="none" id="id26" stroke="none" /><text fill="#e1ed5e" style="font-size:6.75px; font-family:Arial;" text-anchor="middle"><textPath startOffset="19.985693538727396" xlink:href="#id26">February</textPath></text><line stroke="#e1ed5e" stroke-width="0.3" x1="172.23445277983987" x2="176.4835382374775" y1="55.19839476539836" y2="52.563006222186495" /><path d="M 173.08426987136738 54.67131705675599 a86.0,86.0 0 0,1 12.851231095245387,41.99856678651699" fill="none" id="id27" stroke="none" /><text fill="#e1ed5e" style="font-size:6.75px; font-family:Arial;" text-anchor="middle"><textPath startOffset="22.20632615414155" xlink:href="#id27">March</textPath></text><path d="M 119.97218684219823 93.5106431181261 l 31.423534984483943 -10.21012544172263 a54.04065998821449,54.04065998821449 0 0,0 0.2798393060602496,0.8871670731973056 l -31.5946297743124 9.667708202098904" fill="#ff0000" stroke="none" /><path d="M 120.18372546131832 94.20196356495316 l 48.41953232352791 -13.909137493857223 a71.37772539776076,71.37772539776076 0 0,0 0.32906229073259735,1.1838121401764794 l -48.65178138482687 13.073614050261792" fill="#45ff2d" stroke="none" /><path d="M 120.37134235888165 94.90015583598534 l 60.021633349680755 -15.026058232217583 a82.8738951090159,82.8738951090159 0 0,0 0.33452323904142145,1.386814792915119 l -60.271389388982996 13.990658207643056" fill="#4ae7ff" stroke="none" /><path d="M 120.67395015179393 96.31383870115 l 61.680736369200176 -10.997663321200655 a83.65350618738951,83.65350618738951 0 0,0 0.24055616742680752,1.4197761172568861 l -61.860904398147206 9.934301415627932" fill="#4cd9ff" stroke="none" /><path d="M 120.78858239683441 97.02765380044208 l 62.15749386065871 -8.88726259078188 a83.78962875662936,83.78962875662936 0 0,0 0.19185431371796768,1.4295374813672115 l -62.30126417343451 7.816006767350004" fill="#4cd6ff" stroke="none" /><path d="M 120.87857604477298 97.74499172005257 l 62.63572813431897 -6.7650248398422885 a84.0,84.0 0 0,0 0.1428914972710853,1.43889787718226 l -62.74289675727228 5.6858514319555935" fill="#4dd2ff" stroke="none" /><path d="M 120.94382443527127 98.46500227214037 l 54.27869173030231 -3.978149680098213 a75.4242781378904,75.4242781378904 0 0,0 0.08375474238543752,1.2956487939762817 l -54.33912706369217 3.0432418218688957" fill="#37ff77" stroke="none" /><line stroke="#e1ed5e" stroke-width="0.3" x1="184.98032266829074" x2="189.97916517819016" y1="98.17113171792111" y2="98.06355123074" /><path d="M 185.9800911702706 98.14961562048488 a86.0,86.0 0 0,1 -9.607161424134198,41.387399972396054" fill="none" id="id28" stroke="none" /><text fill="#e1ed5e" style="font-size:6.75px; font-family:Arial;" text-anchor="middle"><textPath startOffset="21.466115282336823" xlink:href="#id28">April</textPath></text><path d="M 120.95626037817324 101.35467743843564 l 61.745021738872225 3.991389034872247 a82.8738951090159,82.8738951090159 0 0,0 -0.10427683360337688,1.422774546188055 l -61.66716834660451 -5.0536367175570724" fill="#4ae7ff" stroke="none" /><path d="M 120.8583938346157 102.4346265915055 l 62.0958194770056 7.247927837528478 a83.51738361814967,83.51738361814967 0 0,0 -0.17895981973660693,1.4264858434380503 l -61.961858148022145 -8.315731435253923" fill="#4cdbff" stroke="none" /><path d="M 120.76222939487914 103.15116336523771 l 61.72389351630248 9.368072585518101 a83.43076016499705,83.43076016499705 0 0,0 -0.22771927642674922,1.4180081516843914 l -61.55349248551445 -10.429159966895698" fill="#4cddff" stroke="none" /><path d="M 120.64145759157962 103.86396538481128 l 61.401342323096024 11.49398777992183 a83.46788450206246,83.46788450206246 0 0,0 -0.2765174437708577,1.4099564884659466 l -61.194394946349504 -12.549207995455722" fill="#4cdcff" stroke="none" /><path d="M 120.32669344350535 105.2749913415812 l 60.860300168798275 15.793889809413146 a83.87625220978197,83.87625220978197 0 0,0 -0.37469488424009073,1.3943790541756829 l -60.579417208216405 -16.839159796764378" fill="#4dd4ff" stroke="none" /><line stroke="#e1ed5e" stroke-width="0.3" x1="174.80103733775053" x2="179.2010983576182" y1="140.37084112569926" y2="142.7455964860345" /><path d="M 175.68104954172406 140.8457921977663 a86.0,86.0 0 0,1 -30.038265399797805,32.042727171017184" fill="none" id="id29" stroke="none" /><text fill="#e1ed5e" style="font-size:6.75px; font-family:Arial;" text-anchor="middle"><textPath startOffset="22.206326154141568" xlink:href="#id29">May</textPath></text><path d="M 117.55443506779139 111.5257021239791 l 31.426266196788575 20.63351977174337 a58.594578668238064,58.594578668238064 0 0,0 -0.5608251596230028,0.8383575198794958 l -31.066437931754848 -21.171414205828672" fill="#ff840c" stroke="none" /><path d="M 117.14729908036423 112.12312394758627 l 50.99730021131309 36.055042170576264 a83.45550972304066,83.45550972304066 0 0,0 -0.839404290052407,1.1658591425088811 l -50.369116128885075 -36.927534918536274" fill="#4cdcff" stroke="none" /><line stroke="#e1ed5e" stroke-width="0.3" x1="143.8653032363475" x2="146.44561519142675" y1="172.8068346515853" y2="177.08958963109032" /><path d="M 144.38136562736335 173.6633856474863 a86.0,86.0 0 0,1 -40.68145358897372,12.25698825130547" fill="none" id="id30" stroke="none" /><text fill="#e1ed5e" style="font-size:6.75px; font-family:Arial;" text-anchor="middle"><textPath startOffset="21.466115282336833" xlink:href="#id30">June</textPath></text><line stroke="#e1ed5e" stroke-width="0.3" x1="102.19456741930631" x2="102.32365962044197" y1="184.97166512339345" y2="189.96999836594603" /><path d="M 102.22038585953345 185.97133177190398 a86.0,86.0 0 0,1 -42.740103519485714,-10.115201625700543" fill="none" id="id31" stroke="none" /><text fill="#e1ed5e" style="font-size:6.75px; font-family:Arial;" text-anchor="middle"><textPath startOffset="22.20632615414155" xlink:href="#id31">July</textPath></text><line stroke="#e1ed5e" stroke-width="0.3" x1="58.666819895761336" x2="56.23545636021788" y1="174.27360380694188" y2="178.64263932499728" /><path d="M 58.180547188652646 175.14741091055294 a86.0,86.0 0 0,1 -31.652253787137756,-30.449443065178592" fill="none" id="id32" stroke="none" /><text fill="#e1ed5e" style="font-size:6.75px; font-family:Arial;" text-anchor="middle"><textPath startOffset="22.20632615414155" xlink:href="#id32">August</textPath></text><line stroke="#e1ed5e" stroke-width="0.3" x1="26.63291911575756" x2="22.317208475507996" y1="142.92168965132927" y2="145.44649492493687" /><path d="M 25.769776987707644 143.4266507060508 a86.0,86.0 0 0,1 -11.730757126820373,-40.83630448921669" fill="none" id="id33" stroke="none" /><text fill="#e1ed5e" style="font-size:6.75px; font-family:Arial;" text-anchor="middle"><textPath startOffset="21.46611528233685" xlink:href="#id33">September</textPath></text><line stroke="#e1ed5e" stroke-width="0.3" x1="15.007084014347285" x2="10.007500721073583" y1="101.09737516637583" y2="101.16192664675087" /><path d="M 14.007167355692545 101.11028546245083 a86.0,86.0 0 0,1 10.666146001902534,-42.60595125391555" fill="none" id="id34" stroke="none" /><text fill="#e1ed5e" style="font-size:6.75px; font-family:Arial;" text-anchor="middle"><textPath startOffset="22.20632615414155" xlink:href="#id34">October</textPath></text><line stroke="#e1ed5e" stroke-width="0.3" x1="26.266209847984243" x2="21.928928074336255" y1="57.711370442889674" y2="55.22380399835377" /><path d="M 25.398753493254645 57.213857153982495 a86.0,86.0 0 0,1 29.58750427330803,-30.492523968695096" fill="none" id="id35" stroke="none" /><text fill="#e1ed5e" style="font-size:6.75px; font-family:Arial;" text-anchor="middle"><textPath startOffset="21.46611528233685" xlink:href="#id35">November</textPath></text><line stroke="#e1ed5e" stroke-width="0.3" x1="56.762969772571076" x2="54.21961505331055" y1="26.818313649435495" y2="22.513508569990535" /><path d="M 56.25429882871897 25.957352633546506 a86.0,86.0 0 0,1 42.265352541879196,-11.944610805530505" fill="none" id="id36" stroke="none" /><text fill="#e1ed5e" style="font-size:6.75px; font-family:Arial;" text-anchor="middle"><textPath startOffset="22.20632615414155" xlink:href="#id36">December</textPath></text></svg>