<?xml version="1.0" encoding="utf-8" ?>
<svg baseProfile="full" height="200mm" version="1.1" viewBox="0,0,200,200" width="200mm" xmlns="http://www.w3.org/2000/svg" xmlns:ev="http://www.w3.org/2001/xml-events" xmlns:xlink="http://www.w3.org/1999/xlink"><defs /><rect fill="#1a1a1a" height="200" width="200" x="0" y="0" /><text alignment-baseline="middle" fill="#e1ed5e" style="dominant-baseline: central; font-size:9.0px; font-family:Arial;" text-anchor="middle" x="100.0" y="100.0">2021</text><line stroke="#e1ed5e" stroke-width="0.3" x1="100.0" x2="100.0" y1="15.0" y2="10.0" /><path d="M 100.0 14.0 a86.0,86.0 0 0,1 42.46469731375804,11.215312516191453" fill="none" id="id25" stroke="none" /><text fill="#e1ed5e" style="font-size:6.75px; font-family:Arial;" text-anchor="middle"><textPath startOffset="22.20632615414155" xlink:href="#id25">January</textPath></text><line stroke="#e1ed5e" stroke-width="0.3" x1="143.23703022742887" x2="145.7803849466894" y1="26.81831364943548" y2="22.513508569990506" /><path d="M 143.74570117128098 25.957352633546492 a86.0,86.0 0 0,1 28.547481713284135,27.462654790039103" fill="none" id="id26" stroke="none" /><text fill="#e1ed5e" style="font-size:6.75px; font-family:Arial;" text-anchor="middle"><textPath startOffset="19.985693538727396" xlink:href="#id26">February</textPath></text><line stroke="#e1ed5e" stroke-width="0.3" x1="172.23445277983987" x2="176.4835382374775" y1="55.19839476539836" y2="52.563006222186495" /><path d="M 173.08426987136738 54.67131705675599 a86.0,86.0 0 0,1 12.851231095245387,41.99856678651699" fill="none" id="id27" stroke="none" /><text fill="#e1ed5e" style="font-size:6.75px; font-family:Arial;" text-anchor="middle"><textPath startOffset="22.20632615414155" xlink:href="#id27">March</textPath></text><path d="M 119.97218684219823 93.5106431181261 l 31.476121816215944 -10.227211939114841 a54.095953055273064,54.095953055273064 0 0,0 0.28012563071873803,0.8880748006099825 l -31.64750293070289 9.68388697207844" fill="#ff0000" stroke="none" /><path d="M 120.18372546131832 94.20196356495316 l 48.45182089605823 -13.918412804320855 a71.41131979164192,71.41131979164192 0 0,0 0.3292171660546212,1.1843693091125413 l -48.68422483267921 13.082332191789362" fill="#45ff2d" stroke="none" /><path d="M 120.37134235888165 94.90015583598534 l 60.23062004409309 -15.078376805784275 a83.08933111246344,83.08933111246344 0 0,0 0.33539285364786187,1.3904199068791065 l -60.481245698001764 14.039371667245762" fill="#4be3ff" stroke="none" /><path d="M 120.67395015179393 96.31383870115 l 61.50039556613457 -10.965508591021706 a83.47032122096697,83.47032122096697 0 0,0 0.24002939604015333,1.4166670827140349 l -61.68003682369495 9.905255719991834" fill="#4cdcff" stroke="none" /><path d="M 120.78858239683441 97.02765380044208 l 61.94381067943889 -8.856710224127726 a83.57377244089041,83.57377244089041 0 0,0 0.1913600644184742,1.4258547500015561 l -62.087086742915204 7.789137132061505" fill="#4cdaff" stroke="none" /><path d="M 120.87857604477298 97.74499172005257 l 62.63572813431897 -6.7650248398422885 a84.0,84.0 0 0,0 0.1428914972710853,1.43889787718226 l -62.74289675727228 5.6858514319555935" fill="#4dd2ff" stroke="none" /><path d="M 120.94382443527127 98.46500227214037 l 52.90117721206429 -3.8771900076122248 a74.04306884765774,74.04306884765774 0 0,0 0.08222098122603579,1.2719221876990947 l -52.960078784294744 2.966008755660095" fill="#33ff56" stroke="none" /><line stroke="#e1ed5e" stroke-width="0.3" x1="184.98032266829074" x2="189.97916517819016" y1="98.17113171792111" y2="98.06355123074" /><path d="M 185.9800911702706 98.14961562048488 a86.0,86.0 0 0,1 -9.607161424134198,41.387399972396054" fill="none" id="id28" stroke="none" /><text fill="#e1ed5e" style="font-size:6.75px; font-family:Arial;" text-anchor="middle"><textPath startOffset="21.466115282336823" xlink:href="#id28">April</textPath></text><path d="M 120.95626037817324 101.35467743843564 l 61.827053771809 3.9966918390101553 a82.95609835809685,82.95609835809685 0 0,0 -0.10438026659050503,1.424185807119528 l -61.749096946554154 -5.060350782626453" fill="#4ae6ff" stroke="none" /><path d="M 120.8583938346157 102.4346265915055 l 62.00932933200857 7.2378325632430975 a83.43030629765515,83.43030629765515 0 0,0 -0.17877323173655543,1.424998553492069 l -61.875554591025164 -8.304148871022562" fill="#4cddff" stroke="none" /><path d="M 120.76222939487914 103.15116336523771 l 61.77516460223108 9.375854195315458 a83.48261841123944,83.48261841123944 0 0,0 -0.22786082041229752,1.4188895462175148 l -61.604622027457495 -10.43782297122618" fill="#4cdcff" stroke="none" /><path d="M 120.64145759157962 103.86396538481128 l 61.41751705187633 11.497015598661788 a83.48434018610897,83.48434018610897 0 0,0 -0.2765719591538123,1.4102344612291469 l -61.210515159746855 -12.55251378695888" fill="#4cdcff" stroke="none" /><path d="M 120.32669344350535 105.2749913415812 l 60.7119251290209 15.755384921625678 a83.72296235750053,83.72296235750053 0 0,0 -0.37401010252962374,1.3918307266859864 l -60.431726950149496 -16.798106581487215" fill="#4cd7ff" stroke="none" /><line stroke="#e1ed5e" stroke-width="0.3" x1="174.80103733775053" x2="179.2010983576182" y1="140.37084112569926" y2="142.7455964860345" /><path d="M 175.68104954172406 140.8457921977663 a86.0,86.0 0 0,1 -30.038265399797805,32.042727171017184" fill="none" id="id29" stroke="none" /><text fill="#e1ed5e" style="font-size:6.75px; font-family:Arial;" text-anchor="middle"><textPath startOffset="22.206326154141568" xlink:href="#id29">May</textPath></text><path d="M 117.55443506779139 111.5257021239791 l 31.49133452668281 20.67624163577201 a58.67241853733679,58.67241853733679 0 0,0 -0.5615701868593875,0.8394712345112681 l -31.1307612344127 -21.215249784489085" fill="#ff850c" stroke="none" /><path d="M 117.14729908036423 112.12312394758627 l 51.02357661712378 36.07361956419651 a83.48768998183468,83.48768998183468 0 0,0 -0.8397279624783061,1.1663086951992645 l -50.395068862269866 -36.946561864846906" fill="#4cdcff" stroke="none" /><line stroke="#e1ed5e" stroke-width="0.3" x1="143.8653032363475" x2="146.44561519142675" y1="172.8068346515853" y2="177.08958963109032" /><path d="M 144.38136562736335 173.6633856474863 a86.0,86.0 0 0,1 -40.68145358897372,12.25698825130547" fill="none" id="id30" stroke="none" /><text fill="#e1ed5e" style="font-size:6.75px; font-family:Arial;" text-anchor="middle"><textPath startOffset="21.466115282336833" xlink:href="#id30">June</textPath></text><line stroke="#e1ed5e" stroke-width="0.3" x1="102.19456741930631" x2="102.32365962044197" y1="184.97166512339345" y2="189.96999836594603" /><path d="M 102.22038585953345 185.97133177190398 a86.0,86.0 0 0,1 -42.740103519485714,-10.115201625700543" fill="none" id="id31" stroke="none" /><text fill="#e1ed5e" style="font-size:6.75px; font-family:Arial;" text-anchor="middle"><textPath startOffset="22.20632615414155" xlink:href="#id31">July</textPath></text><line stroke="#e1ed5e" stroke-width="0.3" x1="58.666819895761336" x2="56.23545636021788" y1="174.27360380694188" y2="178.64263932499728" /><path d="M 58.180547188652646 175.14741091055294 a86.0,86.0 0 0,1 -31.652253787137756,-30.449443065178592" fill="none" id="id32" stroke="none" /><text fill="#e1ed5e" style="font-size:6.75px; font-family:Arial;" text-anchor="middle"><textPath startOffset="22.20632615414155" xlink:href="#id32">August</textPath></text><line stroke="#e1ed5e" stroke-width="0.3" x1="26.63291911575756" x2="22.317208475507996" y1="142.92168965132927" y2="145.44649492493687" /><path d="M 25.769776987707644 143.4266507060508 a86.0,86.0 0 0,1 -11.730757126820373,-40.83630448921669" fill="none" id="id33" stroke="none" /><text fill="#e1ed5e" style="font-size:6.75px; font-family:Arial;" text-anchor="middle"><textPath startOffset="21.46611528233685" xlink:href="#id33">September</textPath></text><line stroke="#e1ed5e" stroke-width="0.3" x1="15.007084014347285" x2="10.007500721073583" y1="101.09737516637583" y2="101.16192664675087" /><path d="M 14.007167355692545 101.11028546245083 a86.0,86.0 0 0,1 10.666146001902534,-42.60595125391555" fill="none" id="id34" stroke="none" /><text fill="#e1ed5e" style="font-size:6.75px; font-family:Arial;" text-anchor="middle"><textPath startOffset="22.20632615414155" xlink:href="#id34">October</textPath></text><line stroke="#e1ed5e" stroke-width="0.3" x1="26.266209847984243" x2="21.928928074336255" y1="57.711370442889674" y2="55.22380399835377" /><path d="M 25.398753493254645 57.213857153982495 a86.0,86.0 0 0,1 29.58750427330803,-30.492523968695096" fill="none" id="id35" stroke="none" /><text fill="#e1ed5e" style="font-size:6.75px; font-family:Arial;" text-anchor="middle"><textPath startOffset="21.46611528233685" xlink:href="#id35">November</textPath></text><line stroke="#e1ed5e" stroke-width="0.3" x1="56.762969772571076" x2="54.21961505331055" y1="26.818313649435495" y2="22.513508569990535" /><path d="M 56.25429882871897 25.957352633546506 a86.0,86.0 0 0,1 42.265352541879196,-11.944610805530505" fill="none" id="id36" stroke="none" /><text fill="#e1ed5e" style="font-size:6.75px; font-family:Arial;" text-anchor="middle"><textPath startOffset="22.20632615414155" xlink:href="#id36">December</textPath></text></svg>